<svg width="56" height="56" viewBox="0 0 56 56" fill="none" xmlns="http://www.w3.org/2000/svg">
<g clip-path="url(#clip0_248_465)">
<path d="M27.5 -95.7109L34.8516 -88.3516L34.1484 -87.6484L33.5 -88.2891V-82H28.5V-87H26.5V-82H21.5V-88.2891L20.8516 -87.6484L20.1484 -88.3516L27.5 -95.7109ZM32.5 -83V-89.2891L27.5 -94.2891L22.5 -89.2891V-83H25.5V-88H29.5V-83H32.5ZM19.5 -48V-49H20.5V-48H19.5ZM19.5 -51V-52H20.5V-51H19.5ZM22.5 -51V-52H35.5V-51H22.5ZM19.5 -54V-55H20.5V-54H19.5ZM22.5 -55H35.5V-54H22.5V-55ZM22.5 -48V-49H35.5V-48H22.5ZM19.5 -45V-46H20.5V-45H19.5ZM22.5 -45V-46H35.5V-45H22.5ZM35.5 -9H32.5V-7H24.5L21.5 -4V-7H19.5V-16H21.5V-19H35.5V-9ZM31.5 -15H20.5V-8H22.5V-6.41406C22.7656 -6.67969 23.026 -6.94531 23.2812 -7.21094C23.5417 -7.47656 23.8099 -7.73958 24.0859 -8H31.5V-15ZM34.5 -18H22.5V-16H32.5V-10H34.5V-18ZM27 35C26.3073 35 25.6406 34.9115 25 34.7344C24.3646 34.5573 23.7682 34.3073 23.2109 33.9844C22.6536 33.6562 22.1458 33.2656 21.6875 32.8125C21.2344 32.3542 20.8438 31.8464 20.5156 31.2891C20.1927 30.7318 19.9427 30.1354 19.7656 29.5C19.5885 28.8594 19.5 28.1927 19.5 27.5C19.5 26.8073 19.5885 26.1432 19.7656 25.5078C19.9427 24.8672 20.1927 24.2682 20.5156 23.7109C20.8438 23.1536 21.2344 22.6484 21.6875 22.1953C22.1458 21.737 22.6536 21.3464 23.2109 21.0234C23.7682 20.6953 24.3646 20.4427 25 20.2656C25.6406 20.0885 26.3073 20 27 20C27.6927 20 28.3568 20.0885 28.9922 20.2656C29.6328 20.4427 30.2318 20.6953 30.7891 21.0234C31.3464 21.3464 31.8516 21.737 32.3047 22.1953C32.763 22.6484 33.1536 23.1536 33.4766 23.7109C33.8047 24.2682 34.0573 24.8672 34.2344 25.5078C34.4115 26.1432 34.5 26.8073 34.5 27.5C34.5 28.1927 34.4115 28.8594 34.2344 29.5C34.0573 30.1354 33.8047 30.7318 33.4766 31.2891C33.1536 31.8464 32.763 32.3542 32.3047 32.8125C31.8516 33.2656 31.3464 33.6562 30.7891 33.9844C30.2318 34.3073 29.6328 34.5573 28.9922 34.7344C28.3568 34.9115 27.6927 35 27 35ZM27 21C26.401 21 25.8255 21.0781 25.2734 21.2344C24.7214 21.3906 24.2031 21.6094 23.7188 21.8906C23.2396 22.1719 22.8021 22.5104 22.4062 22.9062C22.0104 23.3021 21.6719 23.7422 21.3906 24.2266C21.1094 24.7057 20.8906 25.224 20.7344 25.7812C20.5781 26.3333 20.5 26.9062 20.5 27.5C20.5 28.0938 20.5781 28.6693 20.7344 29.2266C20.8906 29.7786 21.1094 30.2969 21.3906 30.7812C21.6719 31.2604 22.0104 31.6979 22.4062 32.0938C22.8021 32.4896 23.2396 32.8281 23.7188 33.1094C24.2031 33.3906 24.7214 33.6094 25.2734 33.7656C25.8255 33.9219 26.401 34 27 34C27.5938 34 28.1667 33.9219 28.7188 33.7656C29.276 33.6094 29.7943 33.3906 30.2734 33.1094C30.7578 32.8281 31.1979 32.4896 31.5938 32.0938C31.9896 31.6979 32.3281 31.2604 32.6094 30.7812C32.8906 30.2969 33.1094 29.7786 33.2656 29.2266C33.4219 28.6745 33.5 28.099 33.5 27.5C33.5 26.9062 33.4219 26.3333 33.2656 25.7812C33.1094 25.224 32.8906 24.7057 32.6094 24.2266C32.3281 23.7422 31.9896 23.3021 31.5938 22.9062C31.1979 22.5104 30.7578 22.1719 30.2734 21.8906C29.7943 21.6094 29.276 21.3906 28.7188 21.2344C28.1667 21.0781 27.5938 21 27 21ZM26.5 26H27.5V31H26.5V26ZM26.5 24H27.5V25H26.5V24Z" fill="white"/>
<path d="M27.5 -95.7109L27.5707 -95.7816L27.5 -95.8524L27.4293 -95.7816L27.5 -95.7109ZM34.8516 -88.3516L34.9223 -88.2809L34.9929 -88.3515L34.9223 -88.4222L34.8516 -88.3516ZM34.1484 -87.6484L34.0782 -87.5773L34.1489 -87.5074L34.2191 -87.5777L34.1484 -87.6484ZM33.5 -88.2891L33.5703 -88.3602L33.4 -88.5284V-88.2891H33.5ZM33.5 -82V-81.9H33.6V-82H33.5ZM28.5 -82H28.4V-81.9H28.5V-82ZM28.5 -87H28.6V-87.1H28.5V-87ZM26.5 -87V-87.1H26.4V-87H26.5ZM26.5 -82V-81.9H26.6V-82H26.5ZM21.5 -82H21.4V-81.9H21.5V-82ZM21.5 -88.2891H21.6V-88.5284L21.4297 -88.3602L21.5 -88.2891ZM20.8516 -87.6484L20.7809 -87.5777L20.8511 -87.5074L20.9218 -87.5773L20.8516 -87.6484ZM20.1484 -88.3516L20.0777 -88.4222L20.0071 -88.3515L20.0777 -88.2809L20.1484 -88.3516ZM32.5 -83V-82.9H32.6V-83H32.5ZM32.5 -89.2891H32.6V-89.3305L32.5707 -89.3598L32.5 -89.2891ZM27.5 -94.2891L27.5707 -94.3598L27.5 -94.4305L27.4293 -94.3598L27.5 -94.2891ZM22.5 -89.2891L22.4293 -89.3598L22.4 -89.3305V-89.2891H22.5ZM22.5 -83H22.4V-82.9H22.5V-83ZM25.5 -83V-82.9H25.6V-83H25.5ZM25.5 -88V-88.1H25.4V-88H25.5ZM29.5 -88H29.6V-88.1H29.5V-88ZM29.5 -83H29.4V-82.9H29.5V-83ZM27.4293 -95.6403L34.7808 -88.2809L34.9223 -88.4222L27.5707 -95.7816L27.4293 -95.6403ZM34.7809 -88.4223L34.0777 -87.7191L34.2191 -87.5777L34.9223 -88.2809L34.7809 -88.4223ZM34.2187 -87.7196L33.5703 -88.3602L33.4297 -88.2179L34.0782 -87.5773L34.2187 -87.7196ZM33.4 -88.2891V-82H33.6V-88.2891H33.4ZM33.5 -82.1H28.5V-81.9H33.5V-82.1ZM28.6 -82V-87H28.4V-82H28.6ZM28.5 -87.1H26.5V-86.9H28.5V-87.1ZM26.4 -87V-82H26.6V-87H26.4ZM26.5 -82.1H21.5V-81.9H26.5V-82.1ZM21.6 -82V-88.2891H21.4V-82H21.6ZM21.4297 -88.3602L20.7813 -87.7196L20.9218 -87.5773L21.5703 -88.2179L21.4297 -88.3602ZM20.9223 -87.7191L20.2191 -88.4223L20.0777 -88.2809L20.7809 -87.5777L20.9223 -87.7191ZM20.2192 -88.2809L27.5707 -95.6403L27.4293 -95.7816L20.0777 -88.4222L20.2192 -88.2809ZM32.6 -83V-89.2891H32.4V-83H32.6ZM32.5707 -89.3598L27.5707 -94.3598L27.4293 -94.2184L32.4293 -89.2184L32.5707 -89.3598ZM27.4293 -94.3598L22.4293 -89.3598L22.5707 -89.2184L27.5707 -94.2184L27.4293 -94.3598ZM22.4 -89.2891V-83H22.6V-89.2891H22.4ZM22.5 -82.9H25.5V-83.1H22.5V-82.9ZM25.6 -83V-88H25.4V-83H25.6ZM25.5 -87.9H29.5V-88.1H25.5V-87.9ZM29.4 -88V-83H29.6V-88H29.4ZM29.5 -82.9H32.5V-83.1H29.5V-82.9ZM19.5 -48H19.4V-47.9H19.5V-48ZM19.5 -49V-49.1H19.4V-49H19.5ZM20.5 -49H20.6V-49.1H20.5V-49ZM20.5 -48V-47.9H20.6V-48H20.5ZM19.5 -51H19.4V-50.9H19.5V-51ZM19.5 -52V-52.1H19.4V-52H19.5ZM20.5 -52H20.6V-52.1H20.5V-52ZM20.5 -51V-50.9H20.6V-51H20.5ZM22.5 -51H22.4V-50.9H22.5V-51ZM22.5 -52V-52.1H22.4V-52H22.5ZM35.5 -52H35.6V-52.1H35.5V-52ZM35.5 -51V-50.9H35.6V-51H35.5ZM19.5 -54H19.4V-53.9H19.5V-54ZM19.5 -55V-55.1H19.4V-55H19.5ZM20.5 -55H20.6V-55.1H20.5V-55ZM20.5 -54V-53.9H20.6V-54H20.5ZM22.5 -55V-55.1H22.4V-55H22.5ZM35.5 -55H35.6V-55.1H35.5V-55ZM35.5 -54V-53.9H35.6V-54H35.5ZM22.5 -54H22.4V-53.9H22.5V-54ZM22.5 -48H22.4V-47.9H22.5V-48ZM22.5 -49V-49.1H22.4V-49H22.5ZM35.5 -49H35.6V-49.1H35.5V-49ZM35.5 -48V-47.9H35.6V-48H35.5ZM19.5 -45H19.4V-44.9H19.5V-45ZM19.5 -46V-46.1H19.4V-46H19.5ZM20.5 -46H20.6V-46.1H20.5V-46ZM20.5 -45V-44.9H20.6V-45H20.5ZM22.5 -45H22.4V-44.9H22.5V-45ZM22.5 -46V-46.1H22.4V-46H22.5ZM35.5 -46H35.6V-46.1H35.5V-46ZM35.5 -45V-44.9H35.6V-45H35.5ZM19.6 -48V-49H19.4V-48H19.6ZM19.5 -48.9H20.5V-49.1H19.5V-48.9ZM20.4 -49V-48H20.6V-49H20.4ZM20.5 -48.1H19.5V-47.9H20.5V-48.1ZM19.6 -51V-52H19.4V-51H19.6ZM19.5 -51.9H20.5V-52.1H19.5V-51.9ZM20.4 -52V-51H20.6V-52H20.4ZM20.5 -51.1H19.5V-50.9H20.5V-51.1ZM22.6 -51V-52H22.4V-51H22.6ZM22.5 -51.9H35.5V-52.1H22.5V-51.9ZM35.4 -52V-51H35.6V-52H35.4ZM35.5 -51.1H22.5V-50.9H35.5V-51.1ZM19.6 -54V-55H19.4V-54H19.6ZM19.5 -54.9H20.5V-55.1H19.5V-54.9ZM20.4 -55V-54H20.6V-55H20.4ZM20.5 -54.1H19.5V-53.9H20.5V-54.1ZM22.5 -54.9H35.5V-55.1H22.5V-54.9ZM35.4 -55V-54H35.6V-55H35.4ZM35.5 -54.1H22.5V-53.9H35.5V-54.1ZM22.6 -54V-55H22.4V-54H22.6ZM22.6 -48V-49H22.4V-48H22.6ZM22.5 -48.9H35.5V-49.1H22.5V-48.9ZM35.4 -49V-48H35.6V-49H35.4ZM35.5 -48.1H22.5V-47.9H35.5V-48.1ZM19.6 -45V-46H19.4V-45H19.6ZM19.5 -45.9H20.5V-46.1H19.5V-45.9ZM20.4 -46V-45H20.6V-46H20.4ZM20.5 -45.1H19.5V-44.9H20.5V-45.1ZM22.6 -45V-46H22.4V-45H22.6ZM22.5 -45.9H35.5V-46.1H22.5V-45.9ZM35.4 -46V-45H35.6V-46H35.4ZM35.5 -45.1H22.5V-44.9H35.5V-45.1ZM35.5 -9V-8.9H35.6V-9H35.5ZM32.5 -9V-9.1H32.4V-9H32.5ZM32.5 -7V-6.9H32.6V-7H32.5ZM24.5 -7V-7.1H24.4586L24.4293 -7.07071L24.5 -7ZM21.5 -4H21.4V-3.75858L21.5707 -3.92929L21.5 -4ZM21.5 -7H21.6V-7.1H21.5V-7ZM19.5 -7H19.4V-6.9H19.5V-7ZM19.5 -16V-16.1H19.4V-16H19.5ZM21.5 -16V-15.9H21.6V-16H21.5ZM21.5 -19V-19.1H21.4V-19H21.5ZM35.5 -19H35.6V-19.1H35.5V-19ZM31.5 -15H31.6V-15.1H31.5V-15ZM20.5 -15V-15.1H20.4V-15H20.5ZM20.5 -8H20.4V-7.9H20.5V-8ZM22.5 -8H22.6V-8.1H22.5V-8ZM22.5 -6.41406H22.4V-6.17264L22.5707 -6.34335L22.5 -6.41406ZM23.2812 -7.21094L23.2098 -7.28095L23.2091 -7.28022L23.2812 -7.21094ZM24.0859 -8V-8.1H24.0462L24.0173 -8.07274L24.0859 -8ZM31.5 -8V-7.9H31.6V-8H31.5ZM34.5 -18H34.6V-18.1H34.5V-18ZM22.5 -18V-18.1H22.4V-18H22.5ZM22.5 -16H22.4V-15.9H22.5V-16ZM32.5 -16H32.6V-16.1H32.5V-16ZM32.5 -10H32.4V-9.9H32.5V-10ZM34.5 -10V-9.9H34.6V-10H34.5ZM35.5 -9.1H32.5V-8.9H35.5V-9.1ZM32.4 -9V-7H32.6V-9H32.4ZM32.5 -7.1H24.5V-6.9H32.5V-7.1ZM24.4293 -7.07071L21.4293 -4.07071L21.5707 -3.92929L24.5707 -6.92929L24.4293 -7.07071ZM21.6 -4V-7H21.4V-4H21.6ZM21.5 -7.1H19.5V-6.9H21.5V-7.1ZM19.6 -7V-16H19.4V-7H19.6ZM19.5 -15.9H21.5V-16.1H19.5V-15.9ZM21.6 -16V-19H21.4V-16H21.6ZM21.5 -18.9H35.5V-19.1H21.5V-18.9ZM35.4 -19V-9H35.6V-19H35.4ZM31.5 -15.1H20.5V-14.9H31.5V-15.1ZM20.4 -15V-8H20.6V-15H20.4ZM20.5 -7.9H22.5V-8.1H20.5V-7.9ZM22.4 -8V-6.41406H22.6V-8H22.4ZM22.5707 -6.34335C22.8368 -6.60944 23.0977 -6.87554 23.3534 -7.14165L23.2091 -7.28022C22.9544 -7.01509 22.6945 -6.74994 22.4293 -6.48477L22.5707 -6.34335ZM23.3527 -7.14093C23.6121 -7.40561 23.8794 -7.66772 24.1546 -7.92726L24.0173 -8.07274C23.7403 -7.81145 23.4712 -7.54752 23.2098 -7.28094L23.3527 -7.14093ZM24.0859 -7.9H31.5V-8.1H24.0859V-7.9ZM31.6 -8V-15H31.4V-8H31.6ZM34.5 -18.1H22.5V-17.9H34.5V-18.1ZM22.4 -18V-16H22.6V-18H22.4ZM22.5 -15.9H32.5V-16.1H22.5V-15.9ZM32.4 -16V-10H32.6V-16H32.4ZM32.5 -9.9H34.5V-10.1H32.5V-9.9ZM34.6 -10V-18H34.4V-10H34.6ZM25 34.7344L24.9732 34.8307L24.9734 34.8308L25 34.7344ZM23.2109 33.9844L23.1602 34.0705L23.1608 34.0709L23.2109 33.9844ZM21.6875 32.8125L21.6164 32.8828L21.6172 32.8836L21.6875 32.8125ZM20.5156 31.2891L20.4291 31.3392L20.4295 31.3398L20.5156 31.2891ZM19.7656 29.5L19.6692 29.5266L19.6693 29.5268L19.7656 29.5ZM19.7656 25.5078L19.862 25.5347L19.862 25.5345L19.7656 25.5078ZM20.5156 23.7109L20.4295 23.6602L20.4291 23.6608L20.5156 23.7109ZM23.2109 21.0234L23.2611 21.11L23.2617 21.1096L23.2109 21.0234ZM25 20.2656L24.9734 20.1692L24.9732 20.1693L25 20.2656ZM28.9922 20.2656L28.9653 20.362L28.9655 20.362L28.9922 20.2656ZM30.7891 21.0234L30.7383 21.1096L30.7389 21.11L30.7891 21.0234ZM32.3047 22.1953L32.2336 22.2656L32.2344 22.2664L32.3047 22.1953ZM33.4766 23.7109L33.39 23.7611L33.3904 23.7617L33.4766 23.7109ZM34.2344 25.5078L34.138 25.5345L34.138 25.5347L34.2344 25.5078ZM34.2344 29.5L34.3307 29.5268L34.3308 29.5266L34.2344 29.5ZM33.4766 31.2891L33.3904 31.2383L33.39 31.2389L33.4766 31.2891ZM32.3047 32.8125L32.234 32.7418L32.3047 32.8125ZM30.7891 33.9844L30.8392 34.0709L30.8398 34.0705L30.7891 33.9844ZM28.9922 34.7344L28.9655 34.638L28.9653 34.638L28.9922 34.7344ZM23.7188 21.8906L23.6685 21.8041L23.6681 21.8044L23.7188 21.8906ZM21.3906 24.2266L21.4769 24.2772L21.4771 24.2768L21.3906 24.2266ZM20.7344 25.7812L20.8306 25.8085L20.8307 25.8082L20.7344 25.7812ZM20.7344 29.2266L20.6381 29.2536L20.6382 29.2538L20.7344 29.2266ZM21.3906 30.7812L21.3041 30.8315L21.3044 30.8319L21.3906 30.7812ZM23.7188 33.1094L23.6681 33.1956L23.6685 33.1959L23.7188 33.1094ZM28.7188 33.7656L28.6918 33.6693L28.6915 33.6694L28.7188 33.7656ZM30.2734 33.1094L30.2232 33.0229L30.2228 33.0231L30.2734 33.1094ZM31.5938 32.0938L31.523 32.023L31.5938 32.0938ZM32.6094 30.7812L32.6956 30.8319L32.6959 30.8315L32.6094 30.7812ZM33.2656 25.7812L33.1693 25.8082L33.1694 25.8085L33.2656 25.7812ZM32.6094 24.2266L32.5229 24.2768L32.5231 24.2772L32.6094 24.2266ZM30.2734 21.8906L30.2228 21.9769L30.2232 21.9771L30.2734 21.8906ZM28.7188 21.2344L28.6915 21.3306L28.6918 21.3307L28.7188 21.2344ZM26.5 26V25.9H26.4V26H26.5ZM27.5 26H27.6V25.9H27.5V26ZM27.5 31V31.1H27.6V31H27.5ZM26.5 31H26.4V31.1H26.5V31ZM26.5 24V23.9H26.4V24H26.5ZM27.5 24H27.6V23.9H27.5V24ZM27.5 25V25.1H27.6V25H27.5ZM26.5 25H26.4V25.1H26.5V25ZM27 34.9C26.3159 34.9 25.6582 34.8126 25.0266 34.638L24.9734 34.8308C25.623 35.0103 26.2987 35.1 27 35.1V34.9ZM25.0268 34.638C24.3994 34.4632 23.8109 34.2164 23.2611 33.8979L23.1608 34.0709C23.7256 34.3982 24.3298 34.6514 24.9732 34.8307L25.0268 34.638ZM23.2617 33.8982C22.7115 33.5743 22.2102 33.1887 21.7578 32.7414L21.6172 32.8836C22.0814 33.3426 22.5958 33.7382 23.1602 34.0705L23.2617 33.8982ZM21.7586 32.7422C21.3113 32.2898 20.9257 31.7885 20.6018 31.2383L20.4295 31.3398C20.7618 31.9042 21.1574 32.4186 21.6164 32.8828L21.7586 32.7422ZM20.6021 31.2389C20.2836 30.6891 20.0368 30.1006 19.862 29.4732L19.6693 29.5268C19.8486 30.1702 20.1018 30.7744 20.4291 31.3392L20.6021 31.2389ZM19.862 29.4734C19.6874 28.8418 19.6 28.1841 19.6 27.5H19.4C19.4 28.2013 19.4897 28.877 19.6692 29.5266L19.862 29.4734ZM19.6 27.5C19.6 26.8159 19.6874 26.1609 19.862 25.5347L19.6693 25.481C19.4897 26.1256 19.4 26.7987 19.4 27.5H19.6ZM19.862 25.5345C20.0369 24.9018 20.2836 24.3108 20.6021 23.7611L20.4291 23.6608C20.1018 24.2257 19.8485 24.8326 19.6692 25.4812L19.862 25.5345ZM20.6018 23.7617C20.9257 23.2116 21.3111 22.7131 21.7582 22.266L21.6168 22.1246C21.1576 22.5838 20.7618 23.0957 20.4295 23.6602L20.6018 23.7617ZM21.7582 22.266C22.2104 21.8138 22.7113 21.4285 23.2611 21.11L23.1608 20.9369C22.5959 21.2642 22.0812 21.6602 21.6168 22.1246L21.7582 22.266ZM23.2617 21.1096C23.8113 20.786 24.3996 20.5368 25.0268 20.362L24.9732 20.1693C24.3295 20.3487 23.7251 20.6046 23.1602 20.9373L23.2617 21.1096ZM25.0266 20.362C25.6582 20.1874 26.3159 20.1 27 20.1V19.9C26.2987 19.9 25.623 19.9897 24.9734 20.1692L25.0266 20.362ZM27 20.1C27.6841 20.1 28.3391 20.1874 28.9653 20.362L29.019 20.1693C28.3744 19.9897 27.7013 19.9 27 19.9V20.1ZM28.9655 20.362C29.598 20.5368 30.1888 20.7861 30.7383 21.1096L30.8398 20.9373C30.2748 20.6046 29.6677 20.3486 29.0188 20.1692L28.9655 20.362ZM30.7389 21.11C31.2885 21.4284 31.7867 21.8136 32.2336 22.2656L32.3758 22.125C31.9164 21.6604 31.4042 21.2643 30.8392 20.9369L30.7389 21.11ZM32.2344 22.2664C32.6864 22.7133 33.0716 23.2115 33.39 23.7611L33.5631 23.6608C33.2357 23.0958 32.8396 22.5836 32.375 22.1242L32.2344 22.2664ZM33.3904 23.7617C33.7139 24.3112 33.9632 24.902 34.138 25.5345L34.3308 25.4812C34.1514 24.8323 33.8954 24.2252 33.5627 23.6602L33.3904 23.7617ZM34.138 25.5347C34.3126 26.1609 34.4 26.8159 34.4 27.5H34.6C34.6 26.7987 34.5103 26.1256 34.3307 25.481L34.138 25.5347ZM34.4 27.5C34.4 28.1841 34.3126 28.8418 34.138 29.4734L34.3308 29.5266C34.5103 28.877 34.6 28.2013 34.6 27.5H34.4ZM34.138 29.4732C33.9632 30.1004 33.714 30.6887 33.3904 31.2383L33.5627 31.3398C33.8954 30.7749 34.1513 30.1705 34.3307 29.5268L34.138 29.4732ZM33.39 31.2389C33.0715 31.7887 32.6862 32.2896 32.234 32.7418L32.3754 32.8832C32.8398 32.4188 33.2358 31.9041 33.5631 31.3392L33.39 31.2389ZM32.234 32.7418C31.7869 33.1889 31.2884 33.5743 30.7383 33.8982L30.8398 34.0705C31.4043 33.7382 31.9162 33.3424 32.3754 32.8832L32.234 32.7418ZM30.7389 33.8979C30.1892 34.2164 29.5982 34.4631 28.9655 34.638L29.0188 34.8308C29.6674 34.6515 30.2743 34.3982 30.8392 34.0709L30.7389 33.8979ZM28.9653 34.638C28.3391 34.8126 27.6841 34.9 27 34.9V35.1C27.7013 35.1 28.3744 35.0103 29.019 34.8307L28.9653 34.638ZM27 20.9C26.3922 20.9 25.8075 20.9793 25.2462 21.1382L25.3007 21.3306C25.8435 21.177 26.4098 21.1 27 21.1V20.9ZM25.2462 21.1382C24.6863 21.2966 24.1603 21.5186 23.6685 21.8041L23.769 21.9771C24.2459 21.7001 24.7564 21.4846 25.3007 21.3306L25.2462 21.1382ZM23.6681 21.8044C23.1816 22.09 22.7373 22.4337 22.3355 22.8355L22.477 22.977C22.8668 22.5871 23.2976 22.2538 23.7694 21.9769L23.6681 21.8044ZM22.3355 22.8355C21.9336 23.2375 21.5897 23.6845 21.3041 24.1763L21.4771 24.2768C21.754 23.7999 22.0873 23.3667 22.477 22.977L22.3355 22.8355ZM21.3044 24.1759C21.0186 24.6628 20.7966 25.189 20.6381 25.7543L20.8307 25.8082C20.9847 25.2589 21.2001 24.7486 21.4769 24.2772L21.3044 24.1759ZM20.6382 25.754C20.4793 26.3153 20.4 26.8974 20.4 27.5H20.6C20.6 26.9151 20.6769 26.3514 20.8306 25.8085L20.6382 25.754ZM20.4 27.5C20.4 28.1026 20.4793 28.6873 20.6381 29.2536L20.8307 29.1996C20.6769 28.6513 20.6 28.0849 20.6 27.5H20.4ZM20.6382 29.2538C20.7966 29.8137 21.0186 30.3397 21.3041 30.8315L21.4771 30.731C21.2001 30.2541 20.9846 29.7436 20.8306 29.1993L20.6382 29.2538ZM21.3044 30.8319C21.59 31.3184 21.9337 31.7627 22.3355 32.1645L22.477 32.023C22.0871 31.6332 21.7538 31.2024 21.4769 30.7306L21.3044 30.8319ZM22.3355 32.1645C22.7373 32.5663 23.1816 32.91 23.6681 33.1956L23.7694 33.0231C23.2976 32.7462 22.8668 32.4129 22.477 32.023L22.3355 32.1645ZM23.6685 33.1959C24.1603 33.4814 24.6863 33.7034 25.2462 33.8618L25.3007 33.6694C24.7564 33.5154 24.2459 33.2999 23.769 33.0229L23.6685 33.1959ZM25.2462 33.8618C25.8075 34.0207 26.3922 34.1 27 34.1V33.9C26.4098 33.9 25.8435 33.823 25.3007 33.6694L25.2462 33.8618ZM27 34.1C27.6026 34.1 28.1847 34.0207 28.746 33.8618L28.6915 33.6694C28.1486 33.8231 27.5849 33.9 27 33.9V34.1ZM28.7457 33.8619C29.311 33.7034 29.8372 33.4814 30.3241 33.1956L30.2228 33.0231C29.7514 33.2999 29.2411 33.5153 28.6918 33.6693L28.7457 33.8619ZM30.3237 33.1959C30.8155 32.9103 31.2625 32.5664 31.6645 32.1645L31.523 32.023C31.1333 32.4127 30.7001 32.746 30.2232 33.0229L30.3237 33.1959ZM31.6645 32.1645C32.0663 31.7627 32.41 31.3184 32.6956 30.8319L32.5231 30.7306C32.2462 31.2024 31.9129 31.6332 31.523 32.023L31.6645 32.1645ZM32.6959 30.8315C32.9814 30.3397 33.2034 29.8137 33.3618 29.2538L33.1694 29.1993C33.0154 29.7436 32.7999 30.2541 32.5229 30.731L32.6959 30.8315ZM33.3618 29.2538C33.5207 28.6925 33.6 28.1078 33.6 27.5H33.4C33.4 28.0902 33.323 28.6565 33.1694 29.1993L33.3618 29.2538ZM33.6 27.5C33.6 26.8974 33.5207 26.3153 33.3618 25.754L33.1694 25.8085C33.3231 26.3514 33.4 26.9151 33.4 27.5H33.6ZM33.3619 25.7543C33.2034 25.189 32.9814 24.6628 32.6956 24.1759L32.5231 24.2772C32.7999 24.7486 33.0153 25.2589 33.1693 25.8082L33.3619 25.7543ZM32.6959 24.1763C32.4103 23.6845 32.0664 23.2375 31.6645 22.8355L31.523 22.977C31.9127 23.3667 32.246 23.7999 32.5229 24.2768L32.6959 24.1763ZM31.6645 22.8355C31.2625 22.4336 30.8155 22.0897 30.3237 21.8041L30.2232 21.9771C30.7001 22.254 31.1333 22.5873 31.523 22.977L31.6645 22.8355ZM30.3241 21.8044C29.8372 21.5186 29.311 21.2966 28.7457 21.1381L28.6918 21.3307C29.2411 21.4847 29.7514 21.7001 30.2228 21.9769L30.3241 21.8044ZM28.746 21.1382C28.1847 20.9793 27.6026 20.9 27 20.9V21.1C27.5849 21.1 28.1486 21.1769 28.6915 21.3306L28.746 21.1382ZM26.5 26.1H27.5V25.9H26.5V26.1ZM27.4 26V31H27.6V26H27.4ZM27.5 30.9H26.5V31.1H27.5V30.9ZM26.6 31V26H26.4V31H26.6ZM26.5 24.1H27.5V23.9H26.5V24.1ZM27.4 24V25H27.6V24H27.4ZM27.5 24.9H26.5V25.1H27.5V24.9ZM26.6 25V24H26.4V25H26.6Z" fill="white"/>
</g>
<defs>
<clipPath id="clip0_248_465">
<rect width="56" height="56" fill="white"/>
</clipPath>
</defs>
</svg>
