<svg width="17" height="17" viewBox="0 0 17 17" fill="none" xmlns="http://www.w3.org/2000/svg">
<g clip-path="url(#clip0_249_474)">
<path d="M9.09998 -114.859L16.4516 -107.499L15.7484 -106.796L15.1 -107.437V-101.148H10.1V-106.148H8.09998V-101.148H3.09998V-107.437L2.45158 -106.796L1.74837 -107.499L9.09998 -114.859ZM14.1 -102.148V-108.437L9.09998 -113.437L4.09998 -108.437V-102.148H7.09998V-107.148H11.1V-102.148H14.1ZM1.09998 -67.1476V-68.1476H2.09998V-67.1476H1.09998ZM1.09998 -70.1476V-71.1476H2.09998V-70.1476H1.09998ZM4.09998 -70.1476V-71.1476H17.1V-70.1476H4.09998ZM1.09998 -73.1476V-74.1476H2.09998V-73.1476H1.09998ZM4.09998 -74.1476H17.1V-73.1476H4.09998V-74.1476ZM4.09998 -67.1476V-68.1476H17.1V-67.1476H4.09998ZM1.09998 -64.1476V-65.1476H2.09998V-64.1476H1.09998ZM4.09998 -64.1476V-65.1476H17.1V-64.1476H4.09998ZM17.1 -28.1476H14.1V-26.1476H6.09998L3.09998 -23.1476V-26.1476H1.09998V-35.1476H3.09998V-38.1476H17.1V-28.1476ZM13.1 -34.1476H2.09998V-27.1476H4.09998V-25.5617C4.36558 -25.8273 4.62598 -26.0929 4.88118 -26.3586C5.14168 -26.6242 5.40987 -26.8872 5.68587 -27.1476H13.1V-34.1476ZM16.1 -37.1476H4.09998V-35.1476H14.1V-29.1476H16.1V-37.1476ZM8.59998 15.8524C7.90728 15.8524 7.24058 15.7639 6.59998 15.5868C5.96458 15.4097 5.36817 15.1597 4.81087 14.8368C4.25357 14.5086 3.74578 14.118 3.28748 13.6649C2.83438 13.2066 2.44378 12.6988 2.11558 12.1415C1.79268 11.5842 1.54268 10.9878 1.36558 10.3524C1.18848 9.71178 1.09998 9.04508 1.09998 8.35238C1.09998 7.65968 1.18848 6.99558 1.36558 6.36018C1.54268 5.71958 1.79268 5.12058 2.11558 4.56328C2.44378 4.00598 2.83438 3.50078 3.28748 3.04768C3.74578 2.58938 4.25357 2.19878 4.81087 1.87578C5.36817 1.54768 5.96458 1.29508 6.59998 1.11798C7.24058 0.940881 7.90728 0.852379 8.59998 0.852379C9.29268 0.852379 9.95678 0.940881 10.5922 1.11798C11.2328 1.29508 11.8318 1.54768 12.3891 1.87578C12.9464 2.19878 13.4516 2.58938 13.9047 3.04768C14.363 3.50078 14.7536 4.00598 15.0766 4.56328C15.4047 5.12058 15.6573 5.71958 15.8344 6.36018C16.0115 6.99558 16.1 7.65968 16.1 8.35238C16.1 9.04508 16.0115 9.71178 15.8344 10.3524C15.6573 10.9878 15.4047 11.5842 15.0766 12.1415C14.7536 12.6988 14.363 13.2066 13.9047 13.6649C13.4516 14.118 12.9464 14.5086 12.3891 14.8368C11.8318 15.1597 11.2328 15.4097 10.5922 15.5868C9.95678 15.7639 9.29268 15.8524 8.59998 15.8524ZM8.59998 1.85238C8.00098 1.85238 7.42547 1.93048 6.87337 2.08678C6.32137 2.24298 5.80308 2.46178 5.31878 2.74298C4.83958 3.02428 4.40208 3.36278 4.00618 3.75858C3.61038 4.15448 3.27188 4.59458 2.99058 5.07898C2.70938 5.55808 2.49058 6.07638 2.33438 6.63358C2.17808 7.18568 2.09998 7.75858 2.09998 8.35238C2.09998 8.94618 2.17808 9.52168 2.33438 10.079C2.49058 10.631 2.70938 11.1493 2.99058 11.6336C3.27188 12.1128 3.61038 12.5503 4.00618 12.9462C4.40208 13.342 4.83958 13.6805 5.31878 13.9618C5.80308 14.243 6.32137 14.4618 6.87337 14.618C7.42547 14.7743 8.00098 14.8524 8.59998 14.8524C9.19378 14.8524 9.76668 14.7743 10.3188 14.618C10.876 14.4618 11.3943 14.243 11.8734 13.9618C12.3578 13.6805 12.7979 13.342 13.1938 12.9462C13.5896 12.5503 13.9281 12.1128 14.2094 11.6336C14.4906 11.1493 14.7094 10.631 14.8656 10.079C15.0219 9.52688 15.1 8.95138 15.1 8.35238C15.1 7.75858 15.0219 7.18568 14.8656 6.63358C14.7094 6.07638 14.4906 5.55808 14.2094 5.07898C13.9281 4.59458 13.5896 4.15448 13.1938 3.75858C12.7979 3.36278 12.3578 3.02428 11.8734 2.74298C11.3943 2.46178 10.876 2.24298 10.3188 2.08678C9.76668 1.93048 9.19378 1.85238 8.59998 1.85238ZM8.09998 6.85238H9.09998V11.8524H8.09998V6.85238ZM8.09998 4.85238H9.09998V5.85238H8.09998V4.85238Z" fill="white"/>
<path d="M9.1 -114.858L9.1707 -114.929L9.1 -115L9.0293 -114.929L9.1 -114.858ZM16.4516 -107.499L16.5223 -107.428L16.5929 -107.499L16.5223 -107.57L16.4516 -107.499ZM15.7484 -106.796L15.6782 -106.725L15.7489 -106.655L15.8191 -106.725L15.7484 -106.796ZM15.1 -107.437L15.1703 -107.508L15 -107.676V-107.437H15.1ZM15.1 -101.148V-101.048H15.2V-101.148H15.1ZM10.1 -101.148H10V-101.048H10.1V-101.148ZM10.1 -106.148H10.2V-106.248H10.1V-106.148ZM8.1 -106.148V-106.248H8V-106.148H8.1ZM8.1 -101.148V-101.048H8.2V-101.148H8.1ZM3.1 -101.148H3V-101.048H3.1V-101.148ZM3.1 -107.437H3.2V-107.676L3.0297 -107.508L3.1 -107.437ZM2.4516 -106.796L2.3809 -106.725L2.4511 -106.655L2.5218 -106.725L2.4516 -106.796ZM1.7484 -107.499L1.6777 -107.57L1.6071 -107.499L1.6777 -107.428L1.7484 -107.499ZM14.1 -102.148V-102.048H14.2V-102.148H14.1ZM14.1 -108.437H14.2V-108.478L14.1707 -108.507L14.1 -108.437ZM9.1 -113.437L9.1707 -113.507L9.1 -113.578L9.0293 -113.507L9.1 -113.437ZM4.1 -108.437L4.0293 -108.507L4 -108.478V-108.437H4.1ZM4.1 -102.148H4V-102.048H4.1V-102.148ZM7.1 -102.148V-102.048H7.2V-102.148H7.1ZM7.1 -107.148V-107.248H7V-107.148H7.1ZM11.1 -107.148H11.2V-107.248H11.1V-107.148ZM11.1 -102.148H11V-102.048H11.1V-102.148ZM9.0293 -114.788L16.3808 -107.428L16.5223 -107.57L9.1707 -114.929L9.0293 -114.788ZM16.3809 -107.57L15.6777 -106.867L15.8191 -106.725L16.5223 -107.428L16.3809 -107.57ZM15.8187 -106.867L15.1703 -107.508L15.0297 -107.366L15.6782 -106.725L15.8187 -106.867ZM15 -107.437V-101.148H15.2V-107.437H15ZM15.1 -101.248H10.1V-101.048H15.1V-101.248ZM10.2 -101.148V-106.148H10V-101.148H10.2ZM10.1 -106.248H8.1V-106.048H10.1V-106.248ZM8 -106.148V-101.148H8.2V-106.148H8ZM8.1 -101.248H3.1V-101.048H8.1V-101.248ZM3.2 -101.148V-107.437H3V-101.148H3.2ZM3.0297 -107.508L2.3813 -106.867L2.5218 -106.725L3.1703 -107.366L3.0297 -107.508ZM2.5223 -106.867L1.8191 -107.57L1.6777 -107.428L2.3809 -106.725L2.5223 -106.867ZM1.8192 -107.428L9.1707 -114.788L9.0293 -114.929L1.6777 -107.57L1.8192 -107.428ZM14.2 -102.148V-108.437H14V-102.148H14.2ZM14.1707 -108.507L9.1707 -113.507L9.0293 -113.366L14.0293 -108.366L14.1707 -108.507ZM9.0293 -113.507L4.0293 -108.507L4.1707 -108.366L9.1707 -113.366L9.0293 -113.507ZM4 -108.437V-102.148H4.2V-108.437H4ZM4.1 -102.048H7.1V-102.248H4.1V-102.048ZM7.2 -102.148V-107.148H7V-102.148H7.2ZM7.1 -107.048H11.1V-107.248H7.1V-107.048ZM11 -107.148V-102.148H11.2V-107.148H11ZM11.1 -102.048H14.1V-102.248H11.1V-102.048ZM1.1 -67.1476H1V-67.0476H1.1V-67.1476ZM1.1 -68.1476V-68.2476H1V-68.1476H1.1ZM2.1 -68.1476H2.2V-68.2476H2.1V-68.1476ZM2.1 -67.1476V-67.0476H2.2V-67.1476H2.1ZM1.1 -70.1476H1V-70.0476H1.1V-70.1476ZM1.1 -71.1476V-71.2476H1V-71.1476H1.1ZM2.1 -71.1476H2.2V-71.2476H2.1V-71.1476ZM2.1 -70.1476V-70.0476H2.2V-70.1476H2.1ZM4.1 -70.1476H4V-70.0476H4.1V-70.1476ZM4.1 -71.1476V-71.2476H4V-71.1476H4.1ZM17.1 -71.1476H17.2V-71.2476H17.1V-71.1476ZM17.1 -70.1476V-70.0476H17.2V-70.1476H17.1ZM1.1 -73.1476H1V-73.0476H1.1V-73.1476ZM1.1 -74.1476V-74.2476H1V-74.1476H1.1ZM2.1 -74.1476H2.2V-74.2476H2.1V-74.1476ZM2.1 -73.1476V-73.0476H2.2V-73.1476H2.1ZM4.1 -74.1476V-74.2476H4V-74.1476H4.1ZM17.1 -74.1476H17.2V-74.2476H17.1V-74.1476ZM17.1 -73.1476V-73.0476H17.2V-73.1476H17.1ZM4.1 -73.1476H4V-73.0476H4.1V-73.1476ZM4.1 -67.1476H4V-67.0476H4.1V-67.1476ZM4.1 -68.1476V-68.2476H4V-68.1476H4.1ZM17.1 -68.1476H17.2V-68.2476H17.1V-68.1476ZM17.1 -67.1476V-67.0476H17.2V-67.1476H17.1ZM1.1 -64.1476H1V-64.0476H1.1V-64.1476ZM1.1 -65.1476V-65.2476H1V-65.1476H1.1ZM2.1 -65.1476H2.2V-65.2476H2.1V-65.1476ZM2.1 -64.1476V-64.0476H2.2V-64.1476H2.1ZM4.1 -64.1476H4V-64.0476H4.1V-64.1476ZM4.1 -65.1476V-65.2476H4V-65.1476H4.1ZM17.1 -65.1476H17.2V-65.2476H17.1V-65.1476ZM17.1 -64.1476V-64.0476H17.2V-64.1476H17.1ZM1.2 -67.1476V-68.1476H1V-67.1476H1.2ZM1.1 -68.0476H2.1V-68.2476H1.1V-68.0476ZM2 -68.1476V-67.1476H2.2V-68.1476H2ZM2.1 -67.2476H1.1V-67.0476H2.1V-67.2476ZM1.2 -70.1476V-71.1476H1V-70.1476H1.2ZM1.1 -71.0476H2.1V-71.2476H1.1V-71.0476ZM2 -71.1476V-70.1476H2.2V-71.1476H2ZM2.1 -70.2476H1.1V-70.0476H2.1V-70.2476ZM4.2 -70.1476V-71.1476H4V-70.1476H4.2ZM4.1 -71.0476H17.1V-71.2476H4.1V-71.0476ZM17 -71.1476V-70.1476H17.2V-71.1476H17ZM17.1 -70.2476H4.1V-70.0476H17.1V-70.2476ZM1.2 -73.1476V-74.1476H1V-73.1476H1.2ZM1.1 -74.0476H2.1V-74.2476H1.1V-74.0476ZM2 -74.1476V-73.1476H2.2V-74.1476H2ZM2.1 -73.2476H1.1V-73.0476H2.1V-73.2476ZM4.1 -74.0476H17.1V-74.2476H4.1V-74.0476ZM17 -74.1476V-73.1476H17.2V-74.1476H17ZM17.1 -73.2476H4.1V-73.0476H17.1V-73.2476ZM4.2 -73.1476V-74.1476H4V-73.1476H4.2ZM4.2 -67.1476V-68.1476H4V-67.1476H4.2ZM4.1 -68.0476H17.1V-68.2476H4.1V-68.0476ZM17 -68.1476V-67.1476H17.2V-68.1476H17ZM17.1 -67.2476H4.1V-67.0476H17.1V-67.2476ZM1.2 -64.1476V-65.1476H1V-64.1476H1.2ZM1.1 -65.0476H2.1V-65.2476H1.1V-65.0476ZM2 -65.1476V-64.1476H2.2V-65.1476H2ZM2.1 -64.2476H1.1V-64.0476H2.1V-64.2476ZM4.2 -64.1476V-65.1476H4V-64.1476H4.2ZM4.1 -65.0476H17.1V-65.2476H4.1V-65.0476ZM17 -65.1476V-64.1476H17.2V-65.1476H17ZM17.1 -64.2476H4.1V-64.0476H17.1V-64.2476ZM17.1 -28.1476V-28.0476H17.2V-28.1476H17.1ZM14.1 -28.1476V-28.2476H14V-28.1476H14.1ZM14.1 -26.1476V-26.0476H14.2V-26.1476H14.1ZM6.1 -26.1476V-26.2476H6.0586L6.0293 -26.2183L6.1 -26.1476ZM3.1 -23.1476H3V-22.9062L3.1707 -23.0769L3.1 -23.1476ZM3.1 -26.1476H3.2V-26.2476H3.1V-26.1476ZM1.1 -26.1476H1V-26.0476H1.1V-26.1476ZM1.1 -35.1476V-35.2476H1V-35.1476H1.1ZM3.1 -35.1476V-35.0476H3.2V-35.1476H3.1ZM3.1 -38.1476V-38.2476H3V-38.1476H3.1ZM17.1 -38.1476H17.2V-38.2476H17.1V-38.1476ZM13.1 -34.1476H13.2V-34.2476H13.1V-34.1476ZM2.1 -34.1476V-34.2476H2V-34.1476H2.1ZM2.1 -27.1476H2V-27.0476H2.1V-27.1476ZM4.1 -27.1476H4.2V-27.2476H4.1V-27.1476ZM4.1 -25.5617H4V-25.3202L4.1707 -25.491L4.1 -25.5617ZM4.8812 -26.3585L4.8098 -26.4286L4.8091 -26.4278L4.8812 -26.3585ZM5.6859 -27.1476V-27.2476H5.6462L5.6173 -27.2203L5.6859 -27.1476ZM13.1 -27.1476V-27.0476H13.2V-27.1476H13.1ZM16.1 -37.1476H16.2V-37.2476H16.1V-37.1476ZM4.1 -37.1476V-37.2476H4V-37.1476H4.1ZM4.1 -35.1476H4V-35.0476H4.1V-35.1476ZM14.1 -35.1476H14.2V-35.2476H14.1V-35.1476ZM14.1 -29.1476H14V-29.0476H14.1V-29.1476ZM16.1 -29.1476V-29.0476H16.2V-29.1476H16.1ZM17.1 -28.2476H14.1V-28.0476H17.1V-28.2476ZM14 -28.1476V-26.1476H14.2V-28.1476H14ZM14.1 -26.2476H6.1V-26.0476H14.1V-26.2476ZM6.0293 -26.2183L3.0293 -23.2183L3.1707 -23.0769L6.1707 -26.0769L6.0293 -26.2183ZM3.2 -23.1476V-26.1476H3V-23.1476H3.2ZM3.1 -26.2476H1.1V-26.0476H3.1V-26.2476ZM1.2 -26.1476V-35.1476H1V-26.1476H1.2ZM1.1 -35.0476H3.1V-35.2476H1.1V-35.0476ZM3.2 -35.1476V-38.1476H3V-35.1476H3.2ZM3.1 -38.0476H17.1V-38.2476H3.1V-38.0476ZM17 -38.1476V-28.1476H17.2V-38.1476H17ZM13.1 -34.2476H2.1V-34.0476H13.1V-34.2476ZM2 -34.1476V-27.1476H2.2V-34.1476H2ZM2.1 -27.0476H4.1V-27.2476H2.1V-27.0476ZM4 -27.1476V-25.5617H4.2V-27.1476H4ZM4.1707 -25.491C4.4368 -25.757 4.6977 -26.0231 4.9534 -26.2892L4.8091 -26.4278C4.5544 -26.1627 4.2945 -25.8975 4.0293 -25.6324L4.1707 -25.491ZM4.9527 -26.2885C5.2121 -26.5532 5.4794 -26.8153 5.7546 -27.0749L5.6173 -27.2203C5.3403 -26.959 5.0712 -26.6951 4.8098 -26.4286L4.9527 -26.2885ZM5.6859 -27.0476H13.1V-27.2476H5.6859V-27.0476ZM13.2 -27.1476V-34.1476H13V-27.1476H13.2ZM16.1 -37.2476H4.1V-37.0476H16.1V-37.2476ZM4 -37.1476V-35.1476H4.2V-37.1476H4ZM4.1 -35.0476H14.1V-35.2476H4.1V-35.0476ZM14 -35.1476V-29.1476H14.2V-35.1476H14ZM14.1 -29.0476H16.1V-29.2476H14.1V-29.0476ZM16.2 -29.1476V-37.1476H16V-29.1476H16.2ZM3.2875 13.6649L3.2164 13.7352L3.2172 13.736L3.2875 13.6649ZM13.9047 3.0477L13.8336 3.118L13.8344 3.1188L13.9047 3.0477ZM8.1 6.8524V6.7524H8V6.8524H8.1ZM9.1 6.8524H9.2V6.7524H9.1V6.8524ZM9.1 11.8524V11.9524H9.2V11.8524H9.1ZM8.1 11.8524H8V11.9524H8.1V11.8524ZM8.1 4.8524V4.7524H8V4.8524H8.1ZM9.1 4.8524H9.2V4.7524H9.1V4.8524ZM9.1 5.8524V5.9524H9.2V5.8524H9.1ZM8.1 5.8524H8V5.9524H8.1V5.8524ZM8.6 15.7524C7.9159 15.7524 7.2582 15.665 6.6266 15.4904L6.5732 15.6831C7.2228 15.8626 7.8987 15.9524 8.6 15.9524V15.7524ZM6.6266 15.4904C5.9992 15.3156 5.4109 15.0688 4.8611 14.7503L4.7602 14.9229C5.325 15.2502 5.9298 15.5038 6.5732 15.6831L6.6266 15.4904ZM4.8611 14.7503C4.3109 14.4264 3.8102 14.0411 3.3578 13.5938L3.2172 13.736C3.6814 14.195 4.1958 14.5906 4.7602 14.9229L4.8611 14.7503ZM3.3586 13.5946C2.9113 13.1422 2.5257 12.6409 2.2018 12.0907L2.0291 12.1916C2.3614 12.756 2.7574 13.271 3.2164 13.7352L3.3586 13.5946ZM2.2018 12.0907C1.8833 11.5409 1.6368 10.953 1.462 10.3256L1.2692 10.379C1.4485 11.0224 1.7018 11.6268 2.0291 12.1916L2.2018 12.0907ZM1.462 10.3256C1.2874 9.694 1.2 9.0365 1.2 8.3524H1C1 9.0537 1.0897 9.7294 1.2692 10.379L1.462 10.3256ZM1.2 8.3524C1.2 7.6683 1.2874 7.0133 1.462 6.3871L1.2693 6.3334C1.0897 6.978 1 7.6511 1 8.3524H1.2ZM1.462 6.3871C1.6369 5.7544 1.8836 5.1632 2.2021 4.6135L2.0295 4.5126C1.7022 5.0775 1.4486 5.6848 1.2693 6.3334L1.462 6.3871ZM2.2021 4.6135C2.526 4.0634 2.9111 3.5655 3.3582 3.1184L3.2168 2.97701C2.7576 3.4362 2.3618 3.9481 2.0295 4.5126L2.2021 4.6135ZM3.3582 3.1184C3.8104 2.6662 4.3113 2.2809 4.8611 1.9624L4.7608 1.7893C4.1959 2.1166 3.6812 2.51261 3.2168 2.97701L3.3582 3.1184ZM4.8611 1.9624C5.4107 1.6388 5.9996 1.3892 6.6268 1.2144L6.5734 1.02161C5.9297 1.20101 5.3257 1.4566 4.7608 1.7893L4.8611 1.9624ZM6.6268 1.2144C7.2584 1.0398 7.9159 0.9524 8.6 0.9524V0.752403C7.8987 0.752403 7.223 0.842106 6.5734 1.02161L6.6268 1.2144ZM8.6 0.9524C9.2841 0.9524 9.9391 1.0398 10.5653 1.2144L10.619 1.0217C9.9744 0.842098 9.3013 0.752403 8.6 0.752403V0.9524ZM10.5653 1.2144C11.1978 1.3892 11.7888 1.63851 12.3383 1.96201L12.4398 1.7897C11.8748 1.457 11.2679 1.2011 10.619 1.0217L10.5653 1.2144ZM12.3383 1.96201C12.8879 2.28041 13.3867 2.666 13.8336 3.118L13.9758 2.9774C13.5164 2.5128 13.0048 2.1171 12.4398 1.7897L12.3383 1.96201ZM13.8344 3.1188C14.2864 3.5657 14.6716 4.0639 14.99 4.6135L15.1631 4.5132C14.8357 3.9482 14.4396 3.436 13.975 2.9766L13.8344 3.1188ZM14.99 4.6135C15.3135 5.163 15.5632 5.7544 15.738 6.3869L15.9308 6.3336C15.7514 5.6847 15.4958 5.0782 15.1631 4.5132L14.99 4.6135ZM15.738 6.3869C15.9126 7.0131 16 7.6683 16 8.3524H16.2C16.2 7.6511 16.1104 6.9782 15.9308 6.3336L15.738 6.3869ZM16 8.3524C16 9.0365 15.9126 9.69421 15.738 10.3258L15.9307 10.3792C16.1102 9.7296 16.2 9.0537 16.2 8.3524H16ZM15.738 10.3258C15.5632 10.953 15.314 11.5411 14.9904 12.0907L15.1627 12.1922C15.4954 11.6273 15.7513 11.0229 15.9307 10.3792L15.738 10.3258ZM14.9904 12.0907C14.6719 12.6405 14.2862 13.142 13.834 13.5942L13.9754 13.7356C14.4398 13.2712 14.8354 12.7571 15.1627 12.1922L14.9904 12.0907ZM13.834 13.5942C13.3869 14.0413 12.8884 14.4267 12.3383 14.7506L12.4392 14.9233C13.0037 14.591 13.5162 14.1948 13.9754 13.7356L13.834 13.5942ZM12.3383 14.7506C11.7886 15.0691 11.1982 15.3155 10.5655 15.4904L10.6188 15.6832C11.2674 15.5039 11.8743 15.2506 12.4392 14.9233L12.3383 14.7506ZM10.5655 15.4904C9.9393 15.665 9.2841 15.7524 8.6 15.7524V15.9524C9.3013 15.9524 9.9742 15.8628 10.6188 15.6832L10.5655 15.4904ZM8.6 1.7524C7.9922 1.7524 7.4075 1.8317 6.8462 1.9906L6.9007 2.183C7.4435 2.0294 8.0098 1.9524 8.6 1.9524V1.7524ZM6.8462 1.9906C6.2863 2.149 5.7603 2.371 5.2685 2.6565L5.369 2.8295C5.8459 2.5525 6.3564 2.337 6.9007 2.183L6.8462 1.9906ZM5.2685 2.6565C4.782 2.9421 4.3373 3.2861 3.9355 3.6879L4.077 3.8294C4.4668 3.4395 4.8972 3.1064 5.369 2.8295L5.2685 2.6565ZM3.9355 3.6879C3.5336 4.0899 3.1897 4.5369 2.9041 5.0287L3.0769 5.1296C3.3538 4.6527 3.6873 4.2191 4.077 3.8294L3.9355 3.6879ZM2.9041 5.0287C2.6183 5.5156 2.3966 6.0414 2.2381 6.6067L2.4306 6.6609C2.5846 6.1116 2.8001 5.601 3.0769 5.1296L2.9041 5.0287ZM2.2381 6.6067C2.0792 7.168 2 7.7498 2 8.3524H2.2C2.2 7.7675 2.2769 7.2038 2.4306 6.6609L2.2381 6.6067ZM2 8.3524C2 8.955 2.0793 9.5397 2.2381 10.106L2.4307 10.052C2.2769 9.5037 2.2 8.9373 2.2 8.3524H2ZM2.2381 10.106C2.3965 10.6659 2.6186 11.1921 2.9041 11.6839L3.0771 11.5834C2.8001 11.1065 2.5847 10.5963 2.4307 10.052L2.2381 10.106ZM2.9041 11.6839C3.1897 12.1704 3.5337 12.6151 3.9355 13.0169L4.077 12.8754C3.6871 12.4856 3.354 12.0552 3.0771 11.5834L2.9041 11.6839ZM3.9355 13.0169C4.3373 13.4187 4.7816 13.7624 5.2681 14.048L5.3694 13.8755C4.8976 13.5986 4.4668 13.2653 4.077 12.8754L3.9355 13.0169ZM5.2681 14.048C5.7599 14.3335 6.2863 14.5558 6.8462 14.7142L6.9007 14.5218C6.3564 14.3678 5.8463 14.1525 5.3694 13.8755L5.2681 14.048ZM6.8462 14.7142C7.4075 14.8731 7.9922 14.9524 8.6 14.9524V14.7524C8.0098 14.7524 7.4435 14.6754 6.9007 14.5218L6.8462 14.7142ZM8.6 14.9524C9.2026 14.9524 9.7847 14.8731 10.346 14.7142L10.2918 14.5217C9.7489 14.6754 9.1849 14.7524 8.6 14.7524V14.9524ZM10.346 14.7142C10.9113 14.5557 11.4372 14.3338 11.9241 14.048L11.8232 13.8753C11.3518 14.1521 10.8411 14.3677 10.2918 14.5217L10.346 14.7142ZM11.9241 14.048C12.4159 13.7624 12.8625 13.4188 13.2645 13.0169L13.123 12.8754C12.7333 13.2651 12.3001 13.5984 11.8232 13.8753L11.9241 14.048ZM13.2645 13.0169C13.6663 12.6151 14.01 12.1708 14.2956 11.6843L14.1231 11.583C13.8462 12.0548 13.5129 12.4856 13.123 12.8754L13.2645 13.0169ZM14.2956 11.6843C14.5811 11.1925 14.8034 10.6661 14.9618 10.1062L14.7694 10.0517C14.6154 10.596 14.4001 11.1061 14.1231 11.583L14.2956 11.6843ZM14.9618 10.1062C15.1207 9.5449 15.2 8.9602 15.2 8.3524H15C15 8.9426 14.923 9.5089 14.7694 10.0517L14.9618 10.1062ZM15.2 8.3524C15.2 7.7498 15.1207 7.1677 14.9618 6.6064L14.7693 6.6606C14.923 7.2035 15 7.7675 15 8.3524H15.2ZM14.9618 6.6064C14.8033 6.0411 14.5814 5.51521 14.2956 5.02831L14.1229 5.1292C14.3997 5.6006 14.6153 6.1113 14.7693 6.6606L14.9618 6.6064ZM14.2956 5.02831C14.01 4.53651 13.6664 4.0899 13.2645 3.6879L13.123 3.8294C13.5127 4.2191 13.846 4.6523 14.1229 5.1292L14.2956 5.02831ZM13.2645 3.6879C12.8625 3.286 12.4155 2.9421 11.9237 2.6565L11.8228 2.8293C12.2997 3.1062 12.7333 3.4397 13.123 3.8294L13.2645 3.6879ZM11.9237 2.6565C11.4368 2.3707 10.911 2.149 10.3457 1.9905L10.2915 2.183C10.8408 2.337 11.3514 2.5525 11.8228 2.8293L11.9237 2.6565ZM10.3457 1.9905C9.7844 1.8316 9.2026 1.7524 8.6 1.7524V1.9524C9.1849 1.9524 9.7486 2.0293 10.2915 2.183L10.3457 1.9905ZM8.1 6.9524H9.1V6.7524H8.1V6.9524ZM9 6.8524V11.8524H9.2V6.8524H9ZM9.1 11.7524H8.1V11.9524H9.1V11.7524ZM8.2 11.8524V6.8524H8V11.8524H8.2ZM8.1 4.9524H9.1V4.7524H8.1V4.9524ZM9 4.8524V5.8524H9.2V4.8524H9ZM9.1 5.7524H8.1V5.9524H9.1V5.7524ZM8.2 5.8524V4.8524H8V5.8524H8.2Z" fill="white"/>
</g>
<defs>
<clipPath id="clip0_249_474">
<rect width="17" height="17" fill="white"/>
</clipPath>
</defs>
</svg>
