<svg width="28" height="18" viewBox="0 0 28 18" fill="none" xmlns="http://www.w3.org/2000/svg">
<path fill-rule="evenodd" clip-rule="evenodd" d="M14.188 12.6598C14.188 10.5315 13.2014 8.69465 11.1591 8.10296C12.6476 7.37881 13.4264 6.53984 13.4264 4.83543C13.4264 1.46192 10.9601 0.640625 8.11298 0.640625H0.28125V17.5965H8.33798C11.3582 17.5788 14.188 16.104 14.188 12.6598ZM7.83606 14.6998C9.32452 14.6998 10.5361 14.1611 10.5361 12.4567C10.5361 10.717 9.52356 10.037 7.91394 10.0282H3.93317V14.6998H7.83606ZM7.36875 3.25465C8.68413 3.25465 9.86971 3.62556 9.86971 5.18868C9.86971 6.62816 8.94375 7.21102 7.63702 7.21102H3.94183V3.25465H7.36875Z" fill="black"/>
<path fill-rule="evenodd" clip-rule="evenodd" d="M27.2812 11.3528C27.2812 7.72322 25.1957 4.69413 21.4312 4.69413C17.762 4.69413 15.2784 7.50244 15.2784 11.1939C15.2784 15.0178 17.6409 17.6406 21.4312 17.6406C24.3043 17.6406 26.1649 16.3248 27.0649 13.5076H24.1486C23.8284 14.5585 22.5389 15.1061 21.5351 15.1061C19.5966 15.1061 18.5841 13.9492 18.5841 11.9887H27.2553C27.2639 11.7856 27.2812 11.5648 27.2812 11.3528ZM18.5755 9.86037C18.6793 8.24426 19.7351 7.23751 21.3188 7.23751C22.9803 7.23751 23.8111 8.2266 23.9582 9.86037H18.5755Z" fill="black"/>
<path d="M17.9091 2.91907H24.6418V1.24998H17.9091V2.91907Z" fill="black"/>
</svg>
