<svg width="22" height="22" viewBox="0 0 22 22" fill="none" xmlns="http://www.w3.org/2000/svg">
<path d="M11.9775 11L21.7959 20.8291L20.8291 21.7959L11 11.9775L1.1709 21.7959L0.204102 20.8291L10.0225 11L0.204102 1.1709L1.1709 0.204102L11 10.0225L20.8291 0.204102L21.7959 1.1709L11.9775 11Z" fill="black"/>
<path d="M11.9775 11L11.9068 10.9293L11.8362 11L11.9068 11.0707L11.9775 11ZM21.7959 20.8291L21.8666 20.8998L21.9373 20.8291L21.8666 20.7584L21.7959 20.8291ZM20.8291 21.7959L20.7584 21.8666L20.8291 21.9373L20.8998 21.8666L20.8291 21.7959ZM11 11.9775L11.0707 11.9068L11 11.8362L10.9293 11.9068L11 11.9775ZM1.1709 21.7959L1.10019 21.8666L1.17086 21.9373L1.24157 21.8666L1.1709 21.7959ZM0.204102 20.8291L0.133352 20.7584L0.0627193 20.8291L0.13339 20.8998L0.204102 20.8291ZM10.0225 11L10.0932 11.0707L10.1638 11L10.0932 10.9293L10.0225 11ZM0.204102 1.1709L0.13339 1.10019L0.0627193 1.17086L0.133352 1.24157L0.204102 1.1709ZM1.1709 0.204102L1.24157 0.133352L1.17086 0.0627193L1.10019 0.13339L1.1709 0.204102ZM11 10.0225L10.9293 10.0932L11 10.1638L11.0707 10.0932L11 10.0225ZM20.8291 0.204102L20.8998 0.13339L20.8291 0.0627193L20.7584 0.133352L20.8291 0.204102ZM21.7959 1.1709L21.8666 1.24157L21.9373 1.17086L21.8666 1.10019L21.7959 1.1709ZM11.9068 11.0707L21.7251 20.8998L21.8666 20.7584L12.0483 10.9293L11.9068 11.0707ZM21.7252 20.7584L20.7584 21.7252L20.8998 21.8666L21.8666 20.8998L21.7252 20.7584ZM20.8998 21.7251L11.0707 11.9068L10.9293 12.0483L20.7584 21.8666L20.8998 21.7251ZM10.9293 11.9068L1.10023 21.7251L1.24157 21.8666L11.0707 12.0483L10.9293 11.9068ZM1.24161 21.7252L0.274813 20.7584L0.13339 20.8998L1.10019 21.8666L1.24161 21.7252ZM0.274851 20.8998L10.0932 11.0707L9.95171 10.9293L0.133352 20.7584L0.274851 20.8998ZM10.0932 10.9293L0.274851 1.10023L0.133352 1.24157L9.95171 11.0707L10.0932 10.9293ZM0.274813 1.24161L1.24161 0.274813L1.10019 0.13339L0.13339 1.10019L0.274813 1.24161ZM1.10023 0.274851L10.9293 10.0932L11.0707 9.95171L1.24157 0.133352L1.10023 0.274851ZM11.0707 10.0932L20.8998 0.274851L20.7584 0.133352L10.9293 9.95171L11.0707 10.0932ZM20.7584 0.274813L21.7252 1.24161L21.8666 1.10019L20.8998 0.13339L20.7584 0.274813ZM21.7251 1.10023L11.9068 10.9293L12.0483 11.0707L21.8666 1.24157L21.7251 1.10023Z" fill="black"/>
</svg>
