<svg width="23" height="23" viewBox="0 0 23 23" fill="none" xmlns="http://www.w3.org/2000/svg">
<path d="M11.1406 0C4.99765 0 0 4.99765 0 11.1406C0 17.2836 4.99765 22.2812 11.1406 22.2812C17.2836 22.2812 22.2812 17.2836 22.2812 11.1406C22.2812 4.99765 17.2836 0 11.1406 0ZM18.5065 5.13754C19.8318 6.75679 20.6344 8.8192 20.6553 11.0652C20.3416 10.9989 17.1955 10.3607 14.0292 10.7589C13.7708 10.1282 13.527 9.5733 13.1929 8.88955C16.7113 7.45308 18.3058 5.40891 18.5065 5.13754ZM17.4486 4.03713C17.2774 4.28092 15.845 6.20623 12.4613 7.47451C10.902 4.60957 9.17372 2.25602 8.9107 1.90383C11.9284 1.17641 15.1084 1.96088 17.4486 4.03713ZM7.09501 2.54348C7.34589 2.88753 9.04632 5.244 10.623 8.04681C6.17186 9.22884 2.25139 9.21181 1.8258 9.2062C2.44285 6.25335 4.4328 3.79918 7.09501 2.54348ZM1.62482 11.1551C1.62482 11.0578 1.62676 10.961 1.62968 10.8644C2.04601 10.8729 6.65733 10.9323 11.4094 9.51014C11.6818 10.0433 11.9421 10.5844 12.1809 11.125C8.73995 12.0942 5.61362 14.8772 4.07113 17.5177C2.55129 15.8307 1.62482 13.5992 1.62482 11.1551ZM5.29975 18.6622C6.29373 16.6302 8.99134 14.0073 12.8277 12.6985C14.1637 16.1702 14.7162 19.0798 14.8577 19.9147C11.798 21.218 8.11873 20.8604 5.29975 18.6622ZM16.4574 19.0435C16.3599 18.4646 15.8534 15.679 14.6088 12.2588C17.5907 11.7815 20.2106 12.5629 20.5361 12.6656C20.112 15.3133 18.5922 17.6 16.4574 19.0435Z" fill="black"/>
</svg>
