<svg width="17" height="17" viewBox="0 0 17 17" fill="none" xmlns="http://www.w3.org/2000/svg">
<g clip-path="url(#clip0_248_463)">
<path d="M8.5 -75.7109L15.8516 -68.3516L15.1484 -67.6484L14.5 -68.2891V-62H9.5V-67H7.5V-62H2.5V-68.2891L1.85156 -67.6484L1.14844 -68.3516L8.5 -75.7109ZM13.5 -63V-69.2891L8.5 -74.2891L3.5 -69.2891V-63H6.5V-68H10.5V-63H13.5ZM0.5 -28V-29H1.5V-28H0.5ZM0.5 -31V-32H1.5V-31H0.5ZM3.5 -31V-32H16.5V-31H3.5ZM0.5 -34V-35H1.5V-34H0.5ZM3.5 -35H16.5V-34H3.5V-35ZM3.5 -28V-29H16.5V-28H3.5ZM0.5 -25V-26H1.5V-25H0.5ZM3.5 -25V-26H16.5V-25H3.5ZM16.5 11H13.5V13H5.5L2.5 16V13H0.5V4H2.5V1H16.5V11ZM12.5 5H1.5V12H3.5V13.5859C3.76562 13.3203 4.02604 13.0547 4.28125 12.7891C4.54167 12.5234 4.8099 12.2604 5.08594 12H12.5V5ZM15.5 2H3.5V4H13.5V10H15.5V2ZM8 55C7.30729 55 6.64062 54.9115 6 54.7344C5.36458 54.5573 4.76823 54.3073 4.21094 53.9844C3.65365 53.6562 3.14583 53.2656 2.6875 52.8125C2.23438 52.3542 1.84375 51.8464 1.51562 51.2891C1.19271 50.7318 0.942708 50.1354 0.765625 49.5C0.588542 48.8594 0.5 48.1927 0.5 47.5C0.5 46.8073 0.588542 46.1432 0.765625 45.5078C0.942708 44.8672 1.19271 44.2682 1.51562 43.7109C1.84375 43.1536 2.23438 42.6484 2.6875 42.1953C3.14583 41.737 3.65365 41.3464 4.21094 41.0234C4.76823 40.6953 5.36458 40.4427 6 40.2656C6.64062 40.0885 7.30729 40 8 40C8.69271 40 9.35677 40.0885 9.99219 40.2656C10.6328 40.4427 11.2318 40.6953 11.7891 41.0234C12.3464 41.3464 12.8516 41.737 13.3047 42.1953C13.763 42.6484 14.1536 43.1536 14.4766 43.7109C14.8047 44.2682 15.0573 44.8672 15.2344 45.5078C15.4115 46.1432 15.5 46.8073 15.5 47.5C15.5 48.1927 15.4115 48.8594 15.2344 49.5C15.0573 50.1354 14.8047 50.7318 14.4766 51.2891C14.1536 51.8464 13.763 52.3542 13.3047 52.8125C12.8516 53.2656 12.3464 53.6562 11.7891 53.9844C11.2318 54.3073 10.6328 54.5573 9.99219 54.7344C9.35677 54.9115 8.69271 55 8 55ZM8 41C7.40104 41 6.82552 41.0781 6.27344 41.2344C5.72135 41.3906 5.20312 41.6094 4.71875 41.8906C4.23958 42.1719 3.80208 42.5104 3.40625 42.9062C3.01042 43.3021 2.67188 43.7422 2.39062 44.2266C2.10938 44.7057 1.89062 45.224 1.73438 45.7812C1.57812 46.3333 1.5 46.9062 1.5 47.5C1.5 48.0938 1.57812 48.6693 1.73438 49.2266C1.89062 49.7786 2.10938 50.2969 2.39062 50.7812C2.67188 51.2604 3.01042 51.6979 3.40625 52.0938C3.80208 52.4896 4.23958 52.8281 4.71875 53.1094C5.20312 53.3906 5.72135 53.6094 6.27344 53.7656C6.82552 53.9219 7.40104 54 8 54C8.59375 54 9.16667 53.9219 9.71875 53.7656C10.276 53.6094 10.7943 53.3906 11.2734 53.1094C11.7578 52.8281 12.1979 52.4896 12.5938 52.0938C12.9896 51.6979 13.3281 51.2604 13.6094 50.7812C13.8906 50.2969 14.1094 49.7786 14.2656 49.2266C14.4219 48.6745 14.5 48.099 14.5 47.5C14.5 46.9062 14.4219 46.3333 14.2656 45.7812C14.1094 45.224 13.8906 44.7057 13.6094 44.2266C13.3281 43.7422 12.9896 43.3021 12.5938 42.9062C12.1979 42.5104 11.7578 42.1719 11.2734 41.8906C10.7943 41.6094 10.276 41.3906 9.71875 41.2344C9.16667 41.0781 8.59375 41 8 41ZM7.5 46H8.5V51H7.5V46ZM7.5 44H8.5V45H7.5V44Z" fill="white"/>
<path d="M8.5 -75.7109L8.57075 -75.7816L8.5 -75.8524L8.42925 -75.7816L8.5 -75.7109ZM15.8516 -68.3516L15.9223 -68.2809L15.9929 -68.3515L15.9223 -68.4222L15.8516 -68.3516ZM15.1484 -67.6484L15.0782 -67.5773L15.1489 -67.5074L15.2191 -67.5777L15.1484 -67.6484ZM14.5 -68.2891L14.5703 -68.3602L14.4 -68.5284V-68.2891H14.5ZM14.5 -62V-61.9H14.6V-62H14.5ZM9.5 -62H9.4V-61.9H9.5V-62ZM9.5 -67H9.6V-67.1H9.5V-67ZM7.5 -67V-67.1H7.4V-67H7.5ZM7.5 -62V-61.9H7.6V-62H7.5ZM2.5 -62H2.4V-61.9H2.5V-62ZM2.5 -68.2891H2.6V-68.5284L2.42972 -68.3602L2.5 -68.2891ZM1.85156 -67.6484L1.78085 -67.5777L1.85114 -67.5074L1.92184 -67.5773L1.85156 -67.6484ZM1.14844 -68.3516L1.07769 -68.4222L1.00705 -68.3515L1.07773 -68.2809L1.14844 -68.3516ZM13.5 -63V-62.9H13.6V-63H13.5ZM13.5 -69.2891H13.6V-69.3305L13.5707 -69.3598L13.5 -69.2891ZM8.5 -74.2891L8.57071 -74.3598L8.5 -74.4305L8.42929 -74.3598L8.5 -74.2891ZM3.5 -69.2891L3.42929 -69.3598L3.4 -69.3305V-69.2891H3.5ZM3.5 -63H3.4V-62.9H3.5V-63ZM6.5 -63V-62.9H6.6V-63H6.5ZM6.5 -68V-68.1H6.4V-68H6.5ZM10.5 -68H10.6V-68.1H10.5V-68ZM10.5 -63H10.4V-62.9H10.5V-63ZM8.42925 -75.6403L15.7808 -68.2809L15.9223 -68.4222L8.57075 -75.7816L8.42925 -75.6403ZM15.7809 -68.4223L15.0777 -67.7191L15.2191 -67.5777L15.9223 -68.2809L15.7809 -68.4223ZM15.2187 -67.7196L14.5703 -68.3602L14.4297 -68.2179L15.0782 -67.5773L15.2187 -67.7196ZM14.4 -68.2891V-62H14.6V-68.2891H14.4ZM14.5 -62.1H9.5V-61.9H14.5V-62.1ZM9.6 -62V-67H9.4V-62H9.6ZM9.5 -67.1H7.5V-66.9H9.5V-67.1ZM7.4 -67V-62H7.6V-67H7.4ZM7.5 -62.1H2.5V-61.9H7.5V-62.1ZM2.6 -62V-68.2891H2.4V-62H2.6ZM2.42972 -68.3602L1.78128 -67.7196L1.92184 -67.5773L2.57028 -68.2179L2.42972 -68.3602ZM1.92227 -67.7191L1.21915 -68.4223L1.07773 -68.2809L1.78085 -67.5777L1.92227 -67.7191ZM1.21919 -68.2809L8.57075 -75.6403L8.42925 -75.7816L1.07769 -68.4222L1.21919 -68.2809ZM13.6 -63V-69.2891H13.4V-63H13.6ZM13.5707 -69.3598L8.57071 -74.3598L8.42929 -74.2184L13.4293 -69.2184L13.5707 -69.3598ZM8.42929 -74.3598L3.42929 -69.3598L3.57071 -69.2184L8.57071 -74.2184L8.42929 -74.3598ZM3.4 -69.2891V-63H3.6V-69.2891H3.4ZM3.5 -62.9H6.5V-63.1H3.5V-62.9ZM6.6 -63V-68H6.4V-63H6.6ZM6.5 -67.9H10.5V-68.1H6.5V-67.9ZM10.4 -68V-63H10.6V-68H10.4ZM10.5 -62.9H13.5V-63.1H10.5V-62.9ZM0.5 -28H0.4V-27.9H0.5V-28ZM0.5 -29V-29.1H0.4V-29H0.5ZM1.5 -29H1.6V-29.1H1.5V-29ZM1.5 -28V-27.9H1.6V-28H1.5ZM0.5 -31H0.4V-30.9H0.5V-31ZM0.5 -32V-32.1H0.4V-32H0.5ZM1.5 -32H1.6V-32.1H1.5V-32ZM1.5 -31V-30.9H1.6V-31H1.5ZM3.5 -31H3.4V-30.9H3.5V-31ZM3.5 -32V-32.1H3.4V-32H3.5ZM16.5 -32H16.6V-32.1H16.5V-32ZM16.5 -31V-30.9H16.6V-31H16.5ZM0.5 -34H0.4V-33.9H0.5V-34ZM0.5 -35V-35.1H0.4V-35H0.5ZM1.5 -35H1.6V-35.1H1.5V-35ZM1.5 -34V-33.9H1.6V-34H1.5ZM3.5 -35V-35.1H3.4V-35H3.5ZM16.5 -35H16.6V-35.1H16.5V-35ZM16.5 -34V-33.9H16.6V-34H16.5ZM3.5 -34H3.4V-33.9H3.5V-34ZM3.5 -28H3.4V-27.9H3.5V-28ZM3.5 -29V-29.1H3.4V-29H3.5ZM16.5 -29H16.6V-29.1H16.5V-29ZM16.5 -28V-27.9H16.6V-28H16.5ZM0.5 -25H0.4V-24.9H0.5V-25ZM0.5 -26V-26.1H0.4V-26H0.5ZM1.5 -26H1.6V-26.1H1.5V-26ZM1.5 -25V-24.9H1.6V-25H1.5ZM3.5 -25H3.4V-24.9H3.5V-25ZM3.5 -26V-26.1H3.4V-26H3.5ZM16.5 -26H16.6V-26.1H16.5V-26ZM16.5 -25V-24.9H16.6V-25H16.5ZM0.6 -28V-29H0.4V-28H0.6ZM0.5 -28.9H1.5V-29.1H0.5V-28.9ZM1.4 -29V-28H1.6V-29H1.4ZM1.5 -28.1H0.5V-27.9H1.5V-28.1ZM0.6 -31V-32H0.4V-31H0.6ZM0.5 -31.9H1.5V-32.1H0.5V-31.9ZM1.4 -32V-31H1.6V-32H1.4ZM1.5 -31.1H0.5V-30.9H1.5V-31.1ZM3.6 -31V-32H3.4V-31H3.6ZM3.5 -31.9H16.5V-32.1H3.5V-31.9ZM16.4 -32V-31H16.6V-32H16.4ZM16.5 -31.1H3.5V-30.9H16.5V-31.1ZM0.6 -34V-35H0.4V-34H0.6ZM0.5 -34.9H1.5V-35.1H0.5V-34.9ZM1.4 -35V-34H1.6V-35H1.4ZM1.5 -34.1H0.5V-33.9H1.5V-34.1ZM3.5 -34.9H16.5V-35.1H3.5V-34.9ZM16.4 -35V-34H16.6V-35H16.4ZM16.5 -34.1H3.5V-33.9H16.5V-34.1ZM3.6 -34V-35H3.4V-34H3.6ZM3.6 -28V-29H3.4V-28H3.6ZM3.5 -28.9H16.5V-29.1H3.5V-28.9ZM16.4 -29V-28H16.6V-29H16.4ZM16.5 -28.1H3.5V-27.9H16.5V-28.1ZM0.6 -25V-26H0.4V-25H0.6ZM0.5 -25.9H1.5V-26.1H0.5V-25.9ZM1.4 -26V-25H1.6V-26H1.4ZM1.5 -25.1H0.5V-24.9H1.5V-25.1ZM3.6 -25V-26H3.4V-25H3.6ZM3.5 -25.9H16.5V-26.1H3.5V-25.9ZM16.4 -26V-25H16.6V-26H16.4ZM16.5 -25.1H3.5V-24.9H16.5V-25.1ZM16.5 11V11.1H16.6V11H16.5ZM13.5 11V10.9H13.4V11H13.5ZM13.5 13V13.1H13.6V13H13.5ZM5.5 13V12.9H5.45858L5.42929 12.9293L5.5 13ZM2.5 16H2.4V16.2414L2.57071 16.0707L2.5 16ZM2.5 13H2.6V12.9H2.5V13ZM0.5 13H0.4V13.1H0.5V13ZM0.5 4V3.9H0.4V4H0.5ZM2.5 4V4.1H2.6V4H2.5ZM2.5 1V0.9H2.4V1H2.5ZM16.5 1H16.6V0.9H16.5V1ZM12.5 5H12.6V4.9H12.5V5ZM1.5 5V4.9H1.4V5H1.5ZM1.5 12H1.4V12.1H1.5V12ZM3.5 12H3.6V11.9H3.5V12ZM3.5 13.5859H3.4V13.8274L3.57071 13.6566L3.5 13.5859ZM4.28125 12.7891L4.20984 12.7191L4.20914 12.7198L4.28125 12.7891ZM5.08594 12V11.9H5.04621L5.01732 11.9273L5.08594 12ZM12.5 12V12.1H12.6V12H12.5ZM15.5 2H15.6V1.9H15.5V2ZM3.5 2V1.9H3.4V2H3.5ZM3.5 4H3.4V4.1H3.5V4ZM13.5 4H13.6V3.9H13.5V4ZM13.5 10H13.4V10.1H13.5V10ZM15.5 10V10.1H15.6V10H15.5ZM16.5 10.9H13.5V11.1H16.5V10.9ZM13.4 11V13H13.6V11H13.4ZM13.5 12.9H5.5V13.1H13.5V12.9ZM5.42929 12.9293L2.42929 15.9293L2.57071 16.0707L5.57071 13.0707L5.42929 12.9293ZM2.6 16V13H2.4V16H2.6ZM2.5 12.9H0.5V13.1H2.5V12.9ZM0.6 13V4H0.4V13H0.6ZM0.5 4.1H2.5V3.9H0.5V4.1ZM2.6 4V1H2.4V4H2.6ZM2.5 1.1H16.5V0.9H2.5V1.1ZM16.4 1V11H16.6V1H16.4ZM12.5 4.9H1.5V5.1H12.5V4.9ZM1.4 5V12H1.6V5H1.4ZM1.5 12.1H3.5V11.9H1.5V12.1ZM3.4 12V13.5859H3.6V12H3.4ZM3.57071 13.6566C3.8368 13.3906 4.09768 13.1245 4.35336 12.8583L4.20914 12.7198C3.9544 12.9849 3.69445 13.2501 3.42929 13.5152L3.57071 13.6566ZM4.35266 12.8591C4.61215 12.5944 4.87944 12.3323 5.15456 12.0727L5.01732 11.9273C4.74035 12.1886 4.47119 12.4525 4.20984 12.7191L4.35266 12.8591ZM5.08594 12.1H12.5V11.9H5.08594V12.1ZM12.6 12V5H12.4V12H12.6ZM15.5 1.9H3.5V2.1H15.5V1.9ZM3.4 2V4H3.6V2H3.4ZM3.5 4.1H13.5V3.9H3.5V4.1ZM13.4 4V10H13.6V4H13.4ZM13.5 10.1H15.5V9.9H13.5V10.1ZM15.6 10V2H15.4V10H15.6ZM6 54.7344L5.97315 54.8307L5.97336 54.8308L6 54.7344ZM4.21094 53.9844L4.1602 54.0705L4.1608 54.0709L4.21094 53.9844ZM2.6875 52.8125L2.61638 52.8828L2.61719 52.8836L2.6875 52.8125ZM1.51562 51.2891L1.4291 51.3392L1.42945 51.3398L1.51562 51.2891ZM0.765625 49.5L0.669239 49.5266L0.669296 49.5268L0.765625 49.5ZM0.765625 45.5078L0.861954 45.5347L0.86201 45.5345L0.765625 45.5078ZM1.51562 43.7109L1.42945 43.6602L1.4291 43.6608L1.51562 43.7109ZM4.21094 41.0234L4.26107 41.11L4.26167 41.1096L4.21094 41.0234ZM6 40.2656L5.97336 40.1692L5.97315 40.1693L6 40.2656ZM9.99219 40.2656L9.96534 40.362L9.96554 40.362L9.99219 40.2656ZM11.7891 41.0234L11.7383 41.1096L11.7389 41.11L11.7891 41.0234ZM13.3047 42.1953L13.2336 42.2656L13.2344 42.2664L13.3047 42.1953ZM14.4766 43.7109L14.39 43.7611L14.3904 43.7617L14.4766 43.7109ZM15.2344 45.5078L15.138 45.5345L15.138 45.5347L15.2344 45.5078ZM15.2344 49.5L15.3307 49.5268L15.3308 49.5266L15.2344 49.5ZM14.4766 51.2891L14.3904 51.2383L14.39 51.2389L14.4766 51.2891ZM13.3047 52.8125L13.234 52.7418L13.3047 52.8125ZM11.7891 53.9844L11.8392 54.0709L11.8398 54.0705L11.7891 53.9844ZM9.99219 54.7344L9.96554 54.638L9.96534 54.638L9.99219 54.7344ZM4.71875 41.8906L4.66854 41.8041L4.66813 41.8044L4.71875 41.8906ZM2.39062 44.2266L2.47687 44.2772L2.4771 44.2768L2.39062 44.2266ZM1.73438 45.7812L1.8306 45.8085L1.83066 45.8082L1.73438 45.7812ZM1.73438 49.2266L1.63809 49.2536L1.63815 49.2538L1.73438 49.2266ZM2.39062 50.7812L2.30415 50.8315L2.30438 50.8319L2.39062 50.7812ZM4.71875 53.1094L4.66813 53.1956L4.66854 53.1959L4.71875 53.1094ZM9.71875 53.7656L9.69175 53.6693L9.69152 53.6694L9.71875 53.7656ZM11.2734 53.1094L11.2232 53.0229L11.2228 53.0231L11.2734 53.1094ZM12.5938 52.0938L12.523 52.023L12.5938 52.0938ZM13.6094 50.7812L13.6956 50.8319L13.6959 50.8315L13.6094 50.7812ZM14.2656 45.7812L14.1693 45.8082L14.1694 45.8085L14.2656 45.7812ZM13.6094 44.2266L13.5229 44.2768L13.5231 44.2772L13.6094 44.2266ZM11.2734 41.8906L11.2228 41.9769L11.2232 41.9771L11.2734 41.8906ZM9.71875 41.2344L9.69152 41.3306L9.69175 41.3307L9.71875 41.2344ZM7.5 46V45.9H7.4V46H7.5ZM8.5 46H8.6V45.9H8.5V46ZM8.5 51V51.1H8.6V51H8.5ZM7.5 51H7.4V51.1H7.5V51ZM7.5 44V43.9H7.4V44H7.5ZM8.5 44H8.6V43.9H8.5V44ZM8.5 45V45.1H8.6V45H8.5ZM7.5 45H7.4V45.1H7.5V45ZM8 54.9C7.31591 54.9 6.65823 54.8126 6.02664 54.638L5.97336 54.8308C6.62302 55.0103 7.29867 55.1 8 55.1V54.9ZM6.02685 54.638C5.39938 54.4632 4.81087 54.2164 4.26107 53.8979L4.1608 54.0709C4.72559 54.3982 5.32979 54.6514 5.97315 54.8307L6.02685 54.638ZM4.26167 53.8982C3.71148 53.5743 3.21024 53.1887 2.75781 52.7414L2.61719 52.8836C3.08142 53.3426 3.59581 53.7382 4.1602 54.0705L4.26167 53.8982ZM2.75861 52.7422C2.31132 52.2898 1.92575 51.7885 1.6018 51.2383L1.42945 51.3398C1.76175 51.9042 2.15743 52.4186 2.61639 52.8828L2.75861 52.7422ZM1.60215 51.2389C1.28357 50.6891 1.03682 50.1006 0.861954 49.4732L0.669296 49.5268C0.848594 50.1702 1.10184 50.7744 1.4291 51.3392L1.60215 51.2389ZM0.86201 49.4734C0.687425 48.8418 0.6 48.1841 0.6 47.5H0.4C0.4 48.2013 0.489658 48.877 0.66924 49.5266L0.86201 49.4734ZM0.6 47.5C0.6 46.8159 0.687426 46.1609 0.861954 45.5347L0.669296 45.481C0.489657 46.1256 0.4 46.7987 0.4 47.5H0.6ZM0.86201 45.5345C1.03689 44.9018 1.28364 44.3108 1.60215 43.7611L1.4291 43.6608C1.10177 44.2257 0.848522 44.8326 0.66924 45.4812L0.86201 45.5345ZM1.6018 43.7617C1.92567 43.2116 2.31112 42.7131 2.75821 42.266L2.61679 42.1246C2.15763 42.5838 1.76183 43.0957 1.42945 43.6602L1.6018 43.7617ZM2.75821 42.266C3.21044 41.8138 3.71135 41.4285 4.26107 41.11L4.1608 40.9369C3.59595 41.2642 3.08123 41.6602 2.61679 42.1246L2.75821 42.266ZM4.26167 41.1096C4.81133 40.786 5.39963 40.5368 6.02685 40.362L5.97315 40.1693C5.32953 40.3487 4.72513 40.6046 4.1602 40.9373L4.26167 41.1096ZM6.02664 40.362C6.65823 40.1874 7.31591 40.1 8 40.1V39.9C7.29867 39.9 6.62302 39.9897 5.97336 40.1692L6.02664 40.362ZM8 40.1C8.68409 40.1 9.33909 40.1874 9.96534 40.362L10.019 40.1693C9.37445 39.9897 8.70133 39.9 8 39.9V40.1ZM9.96554 40.362C10.598 40.5368 11.1888 40.7861 11.7383 41.1096L11.8398 40.9373C11.2748 40.6046 10.6677 40.3486 10.0188 40.1692L9.96554 40.362ZM11.7389 41.11C12.2885 41.4284 12.7867 41.8136 13.2336 42.2656L13.3758 42.125C12.9164 41.6604 12.4042 41.2643 11.8392 40.9369L11.7389 41.11ZM13.2344 42.2664C13.6864 42.7133 14.0716 43.2115 14.39 43.7611L14.5631 43.6608C14.2357 43.0958 13.8396 42.5836 13.375 42.1242L13.2344 42.2664ZM14.3904 43.7617C14.7139 44.3112 14.9632 44.902 15.138 45.5345L15.3308 45.4812C15.1514 44.8323 14.8954 44.2252 14.5627 43.6602L14.3904 43.7617ZM15.138 45.5347C15.3126 46.1609 15.4 46.8159 15.4 47.5H15.6C15.6 46.7987 15.5103 46.1256 15.3307 45.481L15.138 45.5347ZM15.4 47.5C15.4 48.1841 15.3126 48.8418 15.138 49.4734L15.3308 49.5266C15.5103 48.877 15.6 48.2013 15.6 47.5H15.4ZM15.138 49.4732C14.9632 50.1004 14.714 50.6887 14.3904 51.2383L14.5627 51.3398C14.8954 50.7749 15.1513 50.1705 15.3307 49.5268L15.138 49.4732ZM14.39 51.2389C14.0715 51.7887 13.6862 52.2896 13.234 52.7418L13.3754 52.8832C13.8398 52.4188 14.2358 51.9041 14.5631 51.3392L14.39 51.2389ZM13.234 52.7418C12.7869 53.1889 12.2884 53.5743 11.7383 53.8982L11.8398 54.0705C12.4043 53.7382 12.9162 53.3424 13.3754 52.8832L13.234 52.7418ZM11.7389 53.8979C11.1892 54.2164 10.5982 54.4631 9.96554 54.638L10.0188 54.8308C10.6674 54.6515 11.2743 54.3982 11.8392 54.0709L11.7389 53.8979ZM9.96534 54.638C9.33909 54.8126 8.68409 54.9 8 54.9V55.1C8.70133 55.1 9.37445 55.0103 10.019 54.8307L9.96534 54.638ZM8 40.9C7.39224 40.9 6.80753 40.9793 6.24621 41.1382L6.30067 41.3306C6.84351 41.177 7.40984 41.1 8 41.1V40.9ZM6.24621 41.1382C5.68628 41.2966 5.16031 41.5186 4.66854 41.8041L4.76896 41.9771C5.24594 41.7001 5.75643 41.4846 6.30067 41.3306L6.24621 41.1382ZM4.66813 41.8044C4.18158 42.09 3.73734 42.4337 3.33554 42.8355L3.47696 42.977C3.86683 42.5871 4.29759 42.2538 4.76937 41.9769L4.66813 41.8044ZM3.33554 42.8355C2.93358 43.2375 2.58974 43.6845 2.30415 44.1763L2.4771 44.2768C2.75401 43.7999 3.08725 43.3667 3.47696 42.977L3.33554 42.8355ZM2.30438 44.1759C2.01861 44.6628 1.79656 45.189 1.63809 45.7543L1.83066 45.8082C1.98469 45.2589 2.20014 44.7486 2.47687 44.2772L2.30438 44.1759ZM1.63815 45.754C1.47931 46.3153 1.4 46.8974 1.4 47.5H1.6C1.6 46.9151 1.67694 46.3514 1.8306 45.8085L1.63815 45.754ZM1.4 47.5C1.4 48.1026 1.47931 48.6873 1.63809 49.2536L1.83066 49.1996C1.67694 48.6513 1.6 48.0849 1.6 47.5H1.4ZM1.63815 49.2538C1.79662 49.8137 2.0186 50.3397 2.30415 50.8315L2.4771 50.731C2.20015 50.2541 1.98463 49.7436 1.8306 49.1993L1.63815 49.2538ZM2.30438 50.8319C2.58997 51.3184 2.93374 51.7627 3.33554 52.1645L3.47696 52.023C3.08709 51.6332 2.75378 51.2024 2.47687 50.7306L2.30438 50.8319ZM3.33554 52.1645C3.73734 52.5663 4.18158 52.91 4.66813 53.1956L4.76937 53.0231C4.29759 52.7462 3.86683 52.4129 3.47696 52.023L3.33554 52.1645ZM4.66854 53.1959C5.16031 53.4814 5.68628 53.7034 6.24621 53.8618L6.30067 53.6694C5.75643 53.5154 5.24594 53.2999 4.76896 53.0229L4.66854 53.1959ZM6.24621 53.8618C6.80753 54.0207 7.39224 54.1 8 54.1V53.9C7.40984 53.9 6.84351 53.823 6.30067 53.6694L6.24621 53.8618ZM8 54.1C8.60264 54.1 9.18473 54.0207 9.74598 53.8618L9.69152 53.6694C9.1486 53.8231 8.58486 53.9 8 53.9V54.1ZM9.74575 53.8619C10.311 53.7034 10.8372 53.4814 11.3241 53.1956L11.2228 53.0231C10.7514 53.2999 10.2411 53.5153 9.69175 53.6693L9.74575 53.8619ZM11.3237 53.1959C11.8155 52.9103 12.2625 52.5664 12.6645 52.1645L12.523 52.023C12.1333 52.4127 11.7001 52.746 11.2232 53.0229L11.3237 53.1959ZM12.6645 52.1645C13.0663 51.7627 13.41 51.3184 13.6956 50.8319L13.5231 50.7306C13.2462 51.2024 12.9129 51.6332 12.523 52.023L12.6645 52.1645ZM13.6959 50.8315C13.9814 50.3397 14.2034 49.8137 14.3618 49.2538L14.1694 49.1993C14.0154 49.7436 13.7999 50.2541 13.5229 50.731L13.6959 50.8315ZM14.3618 49.2538C14.5207 48.6925 14.6 48.1078 14.6 47.5H14.4C14.4 48.0902 14.323 48.6565 14.1694 49.1993L14.3618 49.2538ZM14.6 47.5C14.6 46.8974 14.5207 46.3153 14.3618 45.754L14.1694 45.8085C14.3231 46.3514 14.4 46.9151 14.4 47.5H14.6ZM14.3619 45.7543C14.2034 45.189 13.9814 44.6628 13.6956 44.1759L13.5231 44.2772C13.7999 44.7486 14.0153 45.2589 14.1693 45.8082L14.3619 45.7543ZM13.6959 44.1763C13.4103 43.6845 13.0664 43.2375 12.6645 42.8355L12.523 42.977C12.9127 43.3667 13.246 43.7999 13.5229 44.2768L13.6959 44.1763ZM12.6645 42.8355C12.2625 42.4336 11.8155 42.0897 11.3237 41.8041L11.2232 41.9771C11.7001 42.254 12.1333 42.5873 12.523 42.977L12.6645 42.8355ZM11.3241 41.8044C10.8372 41.5186 10.311 41.2966 9.74575 41.1381L9.69175 41.3307C10.2411 41.4847 10.7514 41.7001 11.2228 41.9769L11.3241 41.8044ZM9.74598 41.1382C9.18473 40.9793 8.60264 40.9 8 40.9V41.1C8.58486 41.1 9.1486 41.1769 9.69152 41.3306L9.74598 41.1382ZM7.5 46.1H8.5V45.9H7.5V46.1ZM8.4 46V51H8.6V46H8.4ZM8.5 50.9H7.5V51.1H8.5V50.9ZM7.6 51V46H7.4V51H7.6ZM7.5 44.1H8.5V43.9H7.5V44.1ZM8.4 44V45H8.6V44H8.4ZM8.5 44.9H7.5V45.1H8.5V44.9ZM7.6 45V44H7.4V45H7.6Z" fill="white"/>
</g>
<defs>
<clipPath id="clip0_248_463">
<rect width="17" height="17" fill="white"/>
</clipPath>
</defs>
</svg>
