<svg width="24" height="23" viewBox="0 0 24 23" fill="none" xmlns="http://www.w3.org/2000/svg">
<path fill-rule="evenodd" clip-rule="evenodd" d="M11.7812 0.140625C5.4275 0.140625 0.28125 5.18763 0.28125 11.4189C0.28125 16.4095 3.57312 20.6247 8.14437 22.1191C8.71937 22.2178 8.935 21.8794 8.935 21.5834C8.935 21.3155 8.92063 20.4273 8.92063 19.4828C6.03125 20.0044 5.28375 18.792 5.05375 18.1576C4.92438 17.8334 4.36375 16.8324 3.875 16.5645C3.4725 16.3531 2.8975 15.8315 3.86063 15.8174C4.76625 15.8033 5.41313 16.635 5.62875 16.9734C6.66375 18.6792 8.31688 18.1999 8.97813 17.9038C9.07875 17.1708 9.38062 16.6773 9.71125 16.3954C7.1525 16.1134 4.47875 15.1407 4.47875 10.8267C4.47875 9.60024 4.92438 8.5852 5.6575 7.79572C5.5425 7.51377 5.14 6.35775 5.7725 4.80699C5.7725 4.80699 6.73562 4.51094 8.935 5.96301C9.855 5.70925 10.8325 5.58237 11.81 5.58237C12.7875 5.58237 13.765 5.70925 14.685 5.96301C16.8844 4.49684 17.8475 4.80699 17.8475 4.80699C18.48 6.35775 18.0775 7.51377 17.9625 7.79572C18.6956 8.5852 19.1413 9.58614 19.1413 10.8267C19.1413 15.1548 16.4531 16.1134 13.8944 16.3954C14.3113 16.7478 14.6706 17.4245 14.6706 18.4818C14.6706 19.9903 14.6562 21.2027 14.6562 21.5834C14.6562 21.8794 14.8719 22.2319 15.4469 22.1191C19.9894 20.6247 23.2812 16.3954 23.2812 11.4189C23.2812 5.18763 18.135 0.140625 11.7812 0.140625Z" fill="#1B1F23"/>
</svg>
