<svg width="17" height="17" viewBox="0 0 17 17" fill="none" xmlns="http://www.w3.org/2000/svg">
<g clip-path="url(#clip0_248_460)">
<path d="M8.5 1.28906L15.8516 8.64844L15.1484 9.35156L14.5 8.71094V15H9.5V10H7.5V15H2.5V8.71094L1.85156 9.35156L1.14844 8.64844L8.5 1.28906ZM13.5 14V7.71094L8.5 2.71094L3.5 7.71094V14H6.5V9H10.5V14H13.5ZM0.5 49V48H1.5V49H0.5ZM0.5 46V45H1.5V46H0.5ZM3.5 46V45H16.5V46H3.5ZM0.5 43V42H1.5V43H0.5ZM3.5 42H16.5V43H3.5V42ZM3.5 49V48H16.5V49H3.5ZM0.5 52V51H1.5V52H0.5ZM3.5 52V51H16.5V52H3.5ZM16.5 88H13.5V90H5.5L2.5 93V90H0.5V81H2.5V78H16.5V88ZM12.5 82H1.5V89H3.5V90.5859C3.76562 90.3203 4.02604 90.0547 4.28125 89.7891C4.54167 89.5234 4.8099 89.2604 5.08594 89H12.5V82ZM15.5 79H3.5V81H13.5V87H15.5V79ZM8 132C7.30729 132 6.64062 131.911 6 131.734C5.36458 131.557 4.76823 131.307 4.21094 130.984C3.65365 130.656 3.14583 130.266 2.6875 129.812C2.23438 129.354 1.84375 128.846 1.51562 128.289C1.19271 127.732 0.942708 127.135 0.765625 126.5C0.588542 125.859 0.5 125.193 0.5 124.5C0.5 123.807 0.588542 123.143 0.765625 122.508C0.942708 121.867 1.19271 121.268 1.51562 120.711C1.84375 120.154 2.23438 119.648 2.6875 119.195C3.14583 118.737 3.65365 118.346 4.21094 118.023C4.76823 117.695 5.36458 117.443 6 117.266C6.64062 117.089 7.30729 117 8 117C8.69271 117 9.35677 117.089 9.99219 117.266C10.6328 117.443 11.2318 117.695 11.7891 118.023C12.3464 118.346 12.8516 118.737 13.3047 119.195C13.763 119.648 14.1536 120.154 14.4766 120.711C14.8047 121.268 15.0573 121.867 15.2344 122.508C15.4115 123.143 15.5 123.807 15.5 124.5C15.5 125.193 15.4115 125.859 15.2344 126.5C15.0573 127.135 14.8047 127.732 14.4766 128.289C14.1536 128.846 13.763 129.354 13.3047 129.812C12.8516 130.266 12.3464 130.656 11.7891 130.984C11.2318 131.307 10.6328 131.557 9.99219 131.734C9.35677 131.911 8.69271 132 8 132ZM8 118C7.40104 118 6.82552 118.078 6.27344 118.234C5.72135 118.391 5.20312 118.609 4.71875 118.891C4.23958 119.172 3.80208 119.51 3.40625 119.906C3.01042 120.302 2.67188 120.742 2.39062 121.227C2.10938 121.706 1.89062 122.224 1.73438 122.781C1.57812 123.333 1.5 123.906 1.5 124.5C1.5 125.094 1.57812 125.669 1.73438 126.227C1.89062 126.779 2.10938 127.297 2.39062 127.781C2.67188 128.26 3.01042 128.698 3.40625 129.094C3.80208 129.49 4.23958 129.828 4.71875 130.109C5.20312 130.391 5.72135 130.609 6.27344 130.766C6.82552 130.922 7.40104 131 8 131C8.59375 131 9.16667 130.922 9.71875 130.766C10.276 130.609 10.7943 130.391 11.2734 130.109C11.7578 129.828 12.1979 129.49 12.5938 129.094C12.9896 128.698 13.3281 128.26 13.6094 127.781C13.8906 127.297 14.1094 126.779 14.2656 126.227C14.4219 125.674 14.5 125.099 14.5 124.5C14.5 123.906 14.4219 123.333 14.2656 122.781C14.1094 122.224 13.8906 121.706 13.6094 121.227C13.3281 120.742 12.9896 120.302 12.5938 119.906C12.1979 119.51 11.7578 119.172 11.2734 118.891C10.7943 118.609 10.276 118.391 9.71875 118.234C9.16667 118.078 8.59375 118 8 118ZM7.5 123H8.5V128H7.5V123ZM7.5 121H8.5V122H7.5V121Z" fill="white"/>
<path d="M8.5 1.28906L8.57075 1.21839L8.5 1.14757L8.42925 1.21839L8.5 1.28906ZM15.8516 8.64844L15.9223 8.71915L15.9929 8.64848L15.9223 8.57776L15.8516 8.64844ZM15.1484 9.35156L15.0782 9.4227L15.1489 9.49256L15.2191 9.42227L15.1484 9.35156ZM14.5 8.71094L14.5703 8.6398L14.4 8.47157V8.71094H14.5ZM14.5 15V15.1H14.6V15H14.5ZM9.5 15H9.4V15.1H9.5V15ZM9.5 10H9.6V9.9H9.5V10ZM7.5 10V9.9H7.4V10H7.5ZM7.5 15V15.1H7.6V15H7.5ZM2.5 15H2.4V15.1H2.5V15ZM2.5 8.71094H2.6V8.47157L2.42972 8.6398L2.5 8.71094ZM1.85156 9.35156L1.78085 9.42227L1.85114 9.49256L1.92184 9.4227L1.85156 9.35156ZM1.14844 8.64844L1.07769 8.57776L1.00705 8.64848L1.07773 8.71915L1.14844 8.64844ZM13.5 14V14.1H13.6V14H13.5ZM13.5 7.71094H13.6V7.66952L13.5707 7.64023L13.5 7.71094ZM8.5 2.71094L8.57071 2.64023L8.5 2.56952L8.42929 2.64023L8.5 2.71094ZM3.5 7.71094L3.42929 7.64023L3.4 7.66952V7.71094H3.5ZM3.5 14H3.4V14.1H3.5V14ZM6.5 14V14.1H6.6V14H6.5ZM6.5 9V8.9H6.4V9H6.5ZM10.5 9H10.6V8.9H10.5V9ZM10.5 14H10.4V14.1H10.5V14ZM8.42925 1.35974L15.7808 8.71911L15.9223 8.57776L8.57075 1.21839L8.42925 1.35974ZM15.7809 8.57773L15.0777 9.28085L15.2191 9.42227L15.9223 8.71915L15.7809 8.57773ZM15.2187 9.28042L14.5703 8.6398L14.4297 8.78208L15.0782 9.4227L15.2187 9.28042ZM14.4 8.71094V15H14.6V8.71094H14.4ZM14.5 14.9H9.5V15.1H14.5V14.9ZM9.6 15V10H9.4V15H9.6ZM9.5 9.9H7.5V10.1H9.5V9.9ZM7.4 10V15H7.6V10H7.4ZM7.5 14.9H2.5V15.1H7.5V14.9ZM2.6 15V8.71094H2.4V15H2.6ZM2.42972 8.6398L1.78128 9.28042L1.92184 9.4227L2.57028 8.78208L2.42972 8.6398ZM1.92227 9.28085L1.21915 8.57773L1.07773 8.71915L1.78085 9.42227L1.92227 9.28085ZM1.21919 8.71911L8.57075 1.35974L8.42925 1.21839L1.07769 8.57776L1.21919 8.71911ZM13.6 14V7.71094H13.4V14H13.6ZM13.5707 7.64023L8.57071 2.64023L8.42929 2.78165L13.4293 7.78165L13.5707 7.64023ZM8.42929 2.64023L3.42929 7.64023L3.57071 7.78165L8.57071 2.78165L8.42929 2.64023ZM3.4 7.71094V14H3.6V7.71094H3.4ZM3.5 14.1H6.5V13.9H3.5V14.1ZM6.6 14V9H6.4V14H6.6ZM6.5 9.1H10.5V8.9H6.5V9.1ZM10.4 9V14H10.6V9H10.4ZM10.5 14.1H13.5V13.9H10.5V14.1ZM0.5 49H0.4V49.1H0.5V49ZM0.5 48V47.9H0.4V48H0.5ZM1.5 48H1.6V47.9H1.5V48ZM1.5 49V49.1H1.6V49H1.5ZM0.5 46H0.4V46.1H0.5V46ZM0.5 45V44.9H0.4V45H0.5ZM1.5 45H1.6V44.9H1.5V45ZM1.5 46V46.1H1.6V46H1.5ZM3.5 46H3.4V46.1H3.5V46ZM3.5 45V44.9H3.4V45H3.5ZM16.5 45H16.6V44.9H16.5V45ZM16.5 46V46.1H16.6V46H16.5ZM0.5 43H0.4V43.1H0.5V43ZM0.5 42V41.9H0.4V42H0.5ZM1.5 42H1.6V41.9H1.5V42ZM1.5 43V43.1H1.6V43H1.5ZM3.5 42V41.9H3.4V42H3.5ZM16.5 42H16.6V41.9H16.5V42ZM16.5 43V43.1H16.6V43H16.5ZM3.5 43H3.4V43.1H3.5V43ZM3.5 49H3.4V49.1H3.5V49ZM3.5 48V47.9H3.4V48H3.5ZM16.5 48H16.6V47.9H16.5V48ZM16.5 49V49.1H16.6V49H16.5ZM0.5 52H0.4V52.1H0.5V52ZM0.5 51V50.9H0.4V51H0.5ZM1.5 51H1.6V50.9H1.5V51ZM1.5 52V52.1H1.6V52H1.5ZM3.5 52H3.4V52.1H3.5V52ZM3.5 51V50.9H3.4V51H3.5ZM16.5 51H16.6V50.9H16.5V51ZM16.5 52V52.1H16.6V52H16.5ZM0.6 49V48H0.4V49H0.6ZM0.5 48.1H1.5V47.9H0.5V48.1ZM1.4 48V49H1.6V48H1.4ZM1.5 48.9H0.5V49.1H1.5V48.9ZM0.6 46V45H0.4V46H0.6ZM0.5 45.1H1.5V44.9H0.5V45.1ZM1.4 45V46H1.6V45H1.4ZM1.5 45.9H0.5V46.1H1.5V45.9ZM3.6 46V45H3.4V46H3.6ZM3.5 45.1H16.5V44.9H3.5V45.1ZM16.4 45V46H16.6V45H16.4ZM16.5 45.9H3.5V46.1H16.5V45.9ZM0.6 43V42H0.4V43H0.6ZM0.5 42.1H1.5V41.9H0.5V42.1ZM1.4 42V43H1.6V42H1.4ZM1.5 42.9H0.5V43.1H1.5V42.9ZM3.5 42.1H16.5V41.9H3.5V42.1ZM16.4 42V43H16.6V42H16.4ZM16.5 42.9H3.5V43.1H16.5V42.9ZM3.6 43V42H3.4V43H3.6ZM3.6 49V48H3.4V49H3.6ZM3.5 48.1H16.5V47.9H3.5V48.1ZM16.4 48V49H16.6V48H16.4ZM16.5 48.9H3.5V49.1H16.5V48.9ZM0.6 52V51H0.4V52H0.6ZM0.5 51.1H1.5V50.9H0.5V51.1ZM1.4 51V52H1.6V51H1.4ZM1.5 51.9H0.5V52.1H1.5V51.9ZM3.6 52V51H3.4V52H3.6ZM3.5 51.1H16.5V50.9H3.5V51.1ZM16.4 51V52H16.6V51H16.4ZM16.5 51.9H3.5V52.1H16.5V51.9ZM16.5 88V88.1H16.6V88H16.5ZM13.5 88V87.9H13.4V88H13.5ZM13.5 90V90.1H13.6V90H13.5ZM5.5 90V89.9H5.45858L5.42929 89.9293L5.5 90ZM2.5 93H2.4V93.2414L2.57071 93.0707L2.5 93ZM2.5 90H2.6V89.9H2.5V90ZM0.5 90H0.4V90.1H0.5V90ZM0.5 81V80.9H0.4V81H0.5ZM2.5 81V81.1H2.6V81H2.5ZM2.5 78V77.9H2.4V78H2.5ZM16.5 78H16.6V77.9H16.5V78ZM12.5 82H12.6V81.9H12.5V82ZM1.5 82V81.9H1.4V82H1.5ZM1.5 89H1.4V89.1H1.5V89ZM3.5 89H3.6V88.9H3.5V89ZM3.5 90.5859H3.4V90.8274L3.57071 90.6566L3.5 90.5859ZM4.28125 89.7891L4.20984 89.7191L4.20914 89.7198L4.28125 89.7891ZM5.08594 89V88.9H5.04621L5.01732 88.9273L5.08594 89ZM12.5 89V89.1H12.6V89H12.5ZM15.5 79H15.6V78.9H15.5V79ZM3.5 79V78.9H3.4V79H3.5ZM3.5 81H3.4V81.1H3.5V81ZM13.5 81H13.6V80.9H13.5V81ZM13.5 87H13.4V87.1H13.5V87ZM15.5 87V87.1H15.6V87H15.5ZM16.5 87.9H13.5V88.1H16.5V87.9ZM13.4 88V90H13.6V88H13.4ZM13.5 89.9H5.5V90.1H13.5V89.9ZM5.42929 89.9293L2.42929 92.9293L2.57071 93.0707L5.57071 90.0707L5.42929 89.9293ZM2.6 93V90H2.4V93H2.6ZM2.5 89.9H0.5V90.1H2.5V89.9ZM0.6 90V81H0.4V90H0.6ZM0.5 81.1H2.5V80.9H0.5V81.1ZM2.6 81V78H2.4V81H2.6ZM2.5 78.1H16.5V77.9H2.5V78.1ZM16.4 78V88H16.6V78H16.4ZM12.5 81.9H1.5V82.1H12.5V81.9ZM1.4 82V89H1.6V82H1.4ZM1.5 89.1H3.5V88.9H1.5V89.1ZM3.4 89V90.5859H3.6V89H3.4ZM3.57071 90.6566C3.8368 90.3906 4.09768 90.1245 4.35336 89.8583L4.20914 89.7198C3.9544 89.9849 3.69445 90.2501 3.42929 90.5152L3.57071 90.6566ZM4.35266 89.8591C4.61215 89.5944 4.87944 89.3323 5.15456 89.0727L5.01732 88.9273C4.74035 89.1886 4.47119 89.4525 4.20984 89.7191L4.35266 89.8591ZM5.08594 89.1H12.5V88.9H5.08594V89.1ZM12.6 89V82H12.4V89H12.6ZM15.5 78.9H3.5V79.1H15.5V78.9ZM3.4 79V81H3.6V79H3.4ZM3.5 81.1H13.5V80.9H3.5V81.1ZM13.4 81V87H13.6V81H13.4ZM13.5 87.1H15.5V86.9H13.5V87.1ZM15.6 87V79H15.4V87H15.6ZM6 131.734L5.97315 131.831L5.97336 131.831L6 131.734ZM4.21094 130.984L4.1602 131.071L4.1608 131.071L4.21094 130.984ZM2.6875 129.812L2.61638 129.883L2.61719 129.884L2.6875 129.812ZM1.51562 128.289L1.4291 128.339L1.42945 128.34L1.51562 128.289ZM0.765625 126.5L0.669239 126.527L0.669296 126.527L0.765625 126.5ZM0.765625 122.508L0.861954 122.535L0.86201 122.534L0.765625 122.508ZM1.51562 120.711L1.42945 120.66L1.4291 120.661L1.51562 120.711ZM4.21094 118.023L4.26107 118.11L4.26167 118.11L4.21094 118.023ZM6 117.266L5.97336 117.169L5.97315 117.169L6 117.266ZM9.99219 117.266L9.96534 117.362L9.96554 117.362L9.99219 117.266ZM11.7891 118.023L11.7383 118.11L11.7389 118.11L11.7891 118.023ZM13.3047 119.195L13.2336 119.266L13.2344 119.266L13.3047 119.195ZM14.4766 120.711L14.39 120.761L14.3904 120.762L14.4766 120.711ZM15.2344 122.508L15.138 122.534L15.138 122.535L15.2344 122.508ZM15.2344 126.5L15.3307 126.527L15.3308 126.527L15.2344 126.5ZM14.4766 128.289L14.3904 128.238L14.39 128.239L14.4766 128.289ZM13.3047 129.812L13.234 129.742L13.3047 129.812ZM11.7891 130.984L11.8392 131.071L11.8398 131.071L11.7891 130.984ZM9.99219 131.734L9.96554 131.638L9.96534 131.638L9.99219 131.734ZM4.71875 118.891L4.66854 118.804L4.66813 118.804L4.71875 118.891ZM2.39062 121.227L2.47687 121.277L2.4771 121.277L2.39062 121.227ZM1.73438 122.781L1.8306 122.808L1.83066 122.808L1.73438 122.781ZM1.73438 126.227L1.63809 126.254L1.63815 126.254L1.73438 126.227ZM2.39062 127.781L2.30415 127.831L2.30438 127.832L2.39062 127.781ZM4.71875 130.109L4.66813 130.196L4.66854 130.196L4.71875 130.109ZM9.71875 130.766L9.69175 130.669L9.69152 130.669L9.71875 130.766ZM11.2734 130.109L11.2232 130.023L11.2228 130.023L11.2734 130.109ZM12.5938 129.094L12.523 129.023L12.5938 129.094ZM13.6094 127.781L13.6956 127.832L13.6959 127.831L13.6094 127.781ZM14.2656 122.781L14.1693 122.808L14.1694 122.808L14.2656 122.781ZM13.6094 121.227L13.5229 121.277L13.5231 121.277L13.6094 121.227ZM11.2734 118.891L11.2228 118.977L11.2232 118.977L11.2734 118.891ZM9.71875 118.234L9.69152 118.331L9.69175 118.331L9.71875 118.234ZM7.5 123V122.9H7.4V123H7.5ZM8.5 123H8.6V122.9H8.5V123ZM8.5 128V128.1H8.6V128H8.5ZM7.5 128H7.4V128.1H7.5V128ZM7.5 121V120.9H7.4V121H7.5ZM8.5 121H8.6V120.9H8.5V121ZM8.5 122V122.1H8.6V122H8.5ZM7.5 122H7.4V122.1H7.5V122ZM8 131.9C7.31591 131.9 6.65823 131.813 6.02664 131.638L5.97336 131.831C6.62302 132.01 7.29867 132.1 8 132.1V131.9ZM6.02685 131.638C5.39938 131.463 4.81087 131.216 4.26107 130.898L4.1608 131.071C4.72559 131.398 5.32979 131.651 5.97315 131.831L6.02685 131.638ZM4.26167 130.898C3.71148 130.574 3.21024 130.189 2.75781 129.741L2.61719 129.884C3.08142 130.343 3.59581 130.738 4.1602 131.071L4.26167 130.898ZM2.75861 129.742C2.31132 129.29 1.92575 128.789 1.6018 128.238L1.42945 128.34C1.76175 128.904 2.15743 129.419 2.61639 129.883L2.75861 129.742ZM1.60215 128.239C1.28357 127.689 1.03682 127.101 0.861954 126.473L0.669296 126.527C0.848594 127.17 1.10184 127.774 1.4291 128.339L1.60215 128.239ZM0.86201 126.473C0.687425 125.842 0.6 125.184 0.6 124.5H0.4C0.4 125.201 0.489658 125.877 0.66924 126.527L0.86201 126.473ZM0.6 124.5C0.6 123.816 0.687426 123.161 0.861954 122.535L0.669296 122.481C0.489657 123.126 0.4 123.799 0.4 124.5H0.6ZM0.86201 122.534C1.03689 121.902 1.28364 121.311 1.60215 120.761L1.4291 120.661C1.10177 121.226 0.848522 121.833 0.66924 122.481L0.86201 122.534ZM1.6018 120.762C1.92567 120.212 2.31112 119.713 2.75821 119.266L2.61679 119.125C2.15763 119.584 1.76183 120.096 1.42945 120.66L1.6018 120.762ZM2.75821 119.266C3.21044 118.814 3.71135 118.428 4.26107 118.11L4.1608 117.937C3.59595 118.264 3.08123 118.66 2.61679 119.125L2.75821 119.266ZM4.26167 118.11C4.81133 117.786 5.39963 117.537 6.02685 117.362L5.97315 117.169C5.32953 117.349 4.72513 117.605 4.1602 117.937L4.26167 118.11ZM6.02664 117.362C6.65823 117.187 7.31591 117.1 8 117.1V116.9C7.29867 116.9 6.62302 116.99 5.97336 117.169L6.02664 117.362ZM8 117.1C8.68409 117.1 9.33909 117.187 9.96534 117.362L10.019 117.169C9.37445 116.99 8.70133 116.9 8 116.9V117.1ZM9.96554 117.362C10.598 117.537 11.1888 117.786 11.7383 118.11L11.8398 117.937C11.2748 117.605 10.6677 117.349 10.0188 117.169L9.96554 117.362ZM11.7389 118.11C12.2885 118.428 12.7867 118.814 13.2336 119.266L13.3758 119.125C12.9164 118.66 12.4042 118.264 11.8392 117.937L11.7389 118.11ZM13.2344 119.266C13.6864 119.713 14.0716 120.211 14.39 120.761L14.5631 120.661C14.2357 120.096 13.8396 119.584 13.375 119.124L13.2344 119.266ZM14.3904 120.762C14.7139 121.311 14.9632 121.902 15.138 122.534L15.3308 122.481C15.1514 121.832 14.8954 121.225 14.5627 120.66L14.3904 120.762ZM15.138 122.535C15.3126 123.161 15.4 123.816 15.4 124.5H15.6C15.6 123.799 15.5103 123.126 15.3307 122.481L15.138 122.535ZM15.4 124.5C15.4 125.184 15.3126 125.842 15.138 126.473L15.3308 126.527C15.5103 125.877 15.6 125.201 15.6 124.5H15.4ZM15.138 126.473C14.9632 127.1 14.714 127.689 14.3904 128.238L14.5627 128.34C14.8954 127.775 15.1513 127.17 15.3307 126.527L15.138 126.473ZM14.39 128.239C14.0715 128.789 13.6862 129.29 13.234 129.742L13.3754 129.883C13.8398 129.419 14.2358 128.904 14.5631 128.339L14.39 128.239ZM13.234 129.742C12.7869 130.189 12.2884 130.574 11.7383 130.898L11.8398 131.071C12.4043 130.738 12.9162 130.342 13.3754 129.883L13.234 129.742ZM11.7389 130.898C11.1892 131.216 10.5982 131.463 9.96554 131.638L10.0188 131.831C10.6674 131.651 11.2743 131.398 11.8392 131.071L11.7389 130.898ZM9.96534 131.638C9.33909 131.813 8.68409 131.9 8 131.9V132.1C8.70133 132.1 9.37445 132.01 10.019 131.831L9.96534 131.638ZM8 117.9C7.39224 117.9 6.80753 117.979 6.24621 118.138L6.30067 118.331C6.84351 118.177 7.40984 118.1 8 118.1V117.9ZM6.24621 118.138C5.68628 118.297 5.16031 118.519 4.66854 118.804L4.76896 118.977C5.24594 118.7 5.75643 118.485 6.30067 118.331L6.24621 118.138ZM4.66813 118.804C4.18158 119.09 3.73734 119.434 3.33554 119.836L3.47696 119.977C3.86683 119.587 4.29759 119.254 4.76937 118.977L4.66813 118.804ZM3.33554 119.836C2.93358 120.237 2.58974 120.684 2.30415 121.176L2.4771 121.277C2.75401 120.8 3.08725 120.367 3.47696 119.977L3.33554 119.836ZM2.30438 121.176C2.01861 121.663 1.79656 122.189 1.63809 122.754L1.83066 122.808C1.98469 122.259 2.20014 121.749 2.47687 121.277L2.30438 121.176ZM1.63815 122.754C1.47931 123.315 1.4 123.897 1.4 124.5H1.6C1.6 123.915 1.67694 123.351 1.8306 122.808L1.63815 122.754ZM1.4 124.5C1.4 125.103 1.47931 125.687 1.63809 126.254L1.83066 126.2C1.67694 125.651 1.6 125.085 1.6 124.5H1.4ZM1.63815 126.254C1.79662 126.814 2.0186 127.34 2.30415 127.831L2.4771 127.731C2.20015 127.254 1.98463 126.744 1.8306 126.199L1.63815 126.254ZM2.30438 127.832C2.58997 128.318 2.93374 128.763 3.33554 129.164L3.47696 129.023C3.08709 128.633 2.75378 128.202 2.47687 127.731L2.30438 127.832ZM3.33554 129.164C3.73734 129.566 4.18158 129.91 4.66813 130.196L4.76937 130.023C4.29759 129.746 3.86683 129.413 3.47696 129.023L3.33554 129.164ZM4.66854 130.196C5.16031 130.481 5.68628 130.703 6.24621 130.862L6.30067 130.669C5.75643 130.515 5.24594 130.3 4.76896 130.023L4.66854 130.196ZM6.24621 130.862C6.80753 131.021 7.39224 131.1 8 131.1V130.9C7.40984 130.9 6.84351 130.823 6.30067 130.669L6.24621 130.862ZM8 131.1C8.60264 131.1 9.18473 131.021 9.74598 130.862L9.69152 130.669C9.1486 130.823 8.58486 130.9 8 130.9V131.1ZM9.74575 130.862C10.311 130.703 10.8372 130.481 11.3241 130.196L11.2228 130.023C10.7514 130.3 10.2411 130.515 9.69175 130.669L9.74575 130.862ZM11.3237 130.196C11.8155 129.91 12.2625 129.566 12.6645 129.164L12.523 129.023C12.1333 129.413 11.7001 129.746 11.2232 130.023L11.3237 130.196ZM12.6645 129.164C13.0663 128.763 13.41 128.318 13.6956 127.832L13.5231 127.731C13.2462 128.202 12.9129 128.633 12.523 129.023L12.6645 129.164ZM13.6959 127.831C13.9814 127.34 14.2034 126.814 14.3618 126.254L14.1694 126.199C14.0154 126.744 13.7999 127.254 13.5229 127.731L13.6959 127.831ZM14.3618 126.254C14.5207 125.692 14.6 125.108 14.6 124.5H14.4C14.4 125.09 14.323 125.656 14.1694 126.199L14.3618 126.254ZM14.6 124.5C14.6 123.897 14.5207 123.315 14.3618 122.754L14.1694 122.808C14.3231 123.351 14.4 123.915 14.4 124.5H14.6ZM14.3619 122.754C14.2034 122.189 13.9814 121.663 13.6956 121.176L13.5231 121.277C13.7999 121.749 14.0153 122.259 14.1693 122.808L14.3619 122.754ZM13.6959 121.176C13.4103 120.684 13.0664 120.237 12.6645 119.836L12.523 119.977C12.9127 120.367 13.246 120.8 13.5229 121.277L13.6959 121.176ZM12.6645 119.836C12.2625 119.434 11.8155 119.09 11.3237 118.804L11.2232 118.977C11.7001 119.254 12.1333 119.587 12.523 119.977L12.6645 119.836ZM11.3241 118.804C10.8372 118.519 10.311 118.297 9.74575 118.138L9.69175 118.331C10.2411 118.485 10.7514 118.7 11.2228 118.977L11.3241 118.804ZM9.74598 118.138C9.18473 117.979 8.60264 117.9 8 117.9V118.1C8.58486 118.1 9.1486 118.177 9.69152 118.331L9.74598 118.138ZM7.5 123.1H8.5V122.9H7.5V123.1ZM8.4 123V128H8.6V123H8.4ZM8.5 127.9H7.5V128.1H8.5V127.9ZM7.6 128V123H7.4V128H7.6ZM7.5 121.1H8.5V120.9H7.5V121.1ZM8.4 121V122H8.6V121H8.4ZM8.5 121.9H7.5V122.1H8.5V121.9ZM7.6 122V121H7.4V122H7.6Z" fill="white"/>
</g>
<defs>
<clipPath id="clip0_248_460">
<rect width="17" height="17" fill="white"/>
</clipPath>
</defs>
</svg>
