<svg width="17" height="17" viewBox="0 0 17 17" fill="none" xmlns="http://www.w3.org/2000/svg">
<g clip-path="url(#clip0_248_461)">
<path d="M8.5 -37.7109L15.8516 -30.3516L15.1484 -29.6484L14.5 -30.2891V-24H9.5V-29H7.5V-24H2.5V-30.2891L1.85156 -29.6484L1.14844 -30.3516L8.5 -37.7109ZM13.5 -25V-31.2891L8.5 -36.2891L3.5 -31.2891V-25H6.5V-30H10.5V-25H13.5ZM0.5 10V9H1.5V10H0.5ZM0.5 7V6H1.5V7H0.5ZM3.5 7V6H16.5V7H3.5ZM0.5 4V3H1.5V4H0.5ZM3.5 3H16.5V4H3.5V3ZM3.5 10V9H16.5V10H3.5ZM0.5 13V12H1.5V13H0.5ZM3.5 13V12H16.5V13H3.5ZM16.5 49H13.5V51H5.5L2.5 54V51H0.5V42H2.5V39H16.5V49ZM12.5 43H1.5V50H3.5V51.5859C3.76562 51.3203 4.02604 51.0547 4.28125 50.7891C4.54167 50.5234 4.8099 50.2604 5.08594 50H12.5V43ZM15.5 40H3.5V42H13.5V48H15.5V40ZM8 93C7.30729 93 6.64062 92.9115 6 92.7344C5.36458 92.5573 4.76823 92.3073 4.21094 91.9844C3.65365 91.6562 3.14583 91.2656 2.6875 90.8125C2.23438 90.3542 1.84375 89.8464 1.51562 89.2891C1.19271 88.7318 0.942708 88.1354 0.765625 87.5C0.588542 86.8594 0.5 86.1927 0.5 85.5C0.5 84.8073 0.588542 84.1432 0.765625 83.5078C0.942708 82.8672 1.19271 82.2682 1.51562 81.7109C1.84375 81.1536 2.23438 80.6484 2.6875 80.1953C3.14583 79.737 3.65365 79.3464 4.21094 79.0234C4.76823 78.6953 5.36458 78.4427 6 78.2656C6.64062 78.0885 7.30729 78 8 78C8.69271 78 9.35677 78.0885 9.99219 78.2656C10.6328 78.4427 11.2318 78.6953 11.7891 79.0234C12.3464 79.3464 12.8516 79.737 13.3047 80.1953C13.763 80.6484 14.1536 81.1536 14.4766 81.7109C14.8047 82.2682 15.0573 82.8672 15.2344 83.5078C15.4115 84.1432 15.5 84.8073 15.5 85.5C15.5 86.1927 15.4115 86.8594 15.2344 87.5C15.0573 88.1354 14.8047 88.7318 14.4766 89.2891C14.1536 89.8464 13.763 90.3542 13.3047 90.8125C12.8516 91.2656 12.3464 91.6562 11.7891 91.9844C11.2318 92.3073 10.6328 92.5573 9.99219 92.7344C9.35677 92.9115 8.69271 93 8 93ZM8 79C7.40104 79 6.82552 79.0781 6.27344 79.2344C5.72135 79.3906 5.20312 79.6094 4.71875 79.8906C4.23958 80.1719 3.80208 80.5104 3.40625 80.9062C3.01042 81.3021 2.67188 81.7422 2.39062 82.2266C2.10938 82.7057 1.89062 83.224 1.73438 83.7812C1.57812 84.3333 1.5 84.9062 1.5 85.5C1.5 86.0938 1.57812 86.6693 1.73438 87.2266C1.89062 87.7786 2.10938 88.2969 2.39062 88.7812C2.67188 89.2604 3.01042 89.6979 3.40625 90.0938C3.80208 90.4896 4.23958 90.8281 4.71875 91.1094C5.20312 91.3906 5.72135 91.6094 6.27344 91.7656C6.82552 91.9219 7.40104 92 8 92C8.59375 92 9.16667 91.9219 9.71875 91.7656C10.276 91.6094 10.7943 91.3906 11.2734 91.1094C11.7578 90.8281 12.1979 90.4896 12.5938 90.0938C12.9896 89.6979 13.3281 89.2604 13.6094 88.7812C13.8906 88.2969 14.1094 87.7786 14.2656 87.2266C14.4219 86.6745 14.5 86.099 14.5 85.5C14.5 84.9062 14.4219 84.3333 14.2656 83.7812C14.1094 83.224 13.8906 82.7057 13.6094 82.2266C13.3281 81.7422 12.9896 81.3021 12.5938 80.9062C12.1979 80.5104 11.7578 80.1719 11.2734 79.8906C10.7943 79.6094 10.276 79.3906 9.71875 79.2344C9.16667 79.0781 8.59375 79 8 79ZM7.5 84H8.5V89H7.5V84ZM7.5 82H8.5V83H7.5V82Z" fill="white"/>
<path d="M8.5 -37.7109L8.57075 -37.7816L8.5 -37.8524L8.42925 -37.7816L8.5 -37.7109ZM15.8516 -30.3516L15.9223 -30.2809L15.9929 -30.3515L15.9223 -30.4222L15.8516 -30.3516ZM15.1484 -29.6484L15.0782 -29.5773L15.1489 -29.5074L15.2191 -29.5777L15.1484 -29.6484ZM14.5 -30.2891L14.5703 -30.3602L14.4 -30.5284V-30.2891H14.5ZM14.5 -24V-23.9H14.6V-24H14.5ZM9.5 -24H9.4V-23.9H9.5V-24ZM9.5 -29H9.6V-29.1H9.5V-29ZM7.5 -29V-29.1H7.4V-29H7.5ZM7.5 -24V-23.9H7.6V-24H7.5ZM2.5 -24H2.4V-23.9H2.5V-24ZM2.5 -30.2891H2.6V-30.5284L2.42972 -30.3602L2.5 -30.2891ZM1.85156 -29.6484L1.78085 -29.5777L1.85114 -29.5074L1.92184 -29.5773L1.85156 -29.6484ZM1.14844 -30.3516L1.07769 -30.4222L1.00705 -30.3515L1.07773 -30.2809L1.14844 -30.3516ZM13.5 -25V-24.9H13.6V-25H13.5ZM13.5 -31.2891H13.6V-31.3305L13.5707 -31.3598L13.5 -31.2891ZM8.5 -36.2891L8.57071 -36.3598L8.5 -36.4305L8.42929 -36.3598L8.5 -36.2891ZM3.5 -31.2891L3.42929 -31.3598L3.4 -31.3305V-31.2891H3.5ZM3.5 -25H3.4V-24.9H3.5V-25ZM6.5 -25V-24.9H6.6V-25H6.5ZM6.5 -30V-30.1H6.4V-30H6.5ZM10.5 -30H10.6V-30.1H10.5V-30ZM10.5 -25H10.4V-24.9H10.5V-25ZM8.42925 -37.6403L15.7808 -30.2809L15.9223 -30.4222L8.57075 -37.7816L8.42925 -37.6403ZM15.7809 -30.4223L15.0777 -29.7191L15.2191 -29.5777L15.9223 -30.2809L15.7809 -30.4223ZM15.2187 -29.7196L14.5703 -30.3602L14.4297 -30.2179L15.0782 -29.5773L15.2187 -29.7196ZM14.4 -30.2891V-24H14.6V-30.2891H14.4ZM14.5 -24.1H9.5V-23.9H14.5V-24.1ZM9.6 -24V-29H9.4V-24H9.6ZM9.5 -29.1H7.5V-28.9H9.5V-29.1ZM7.4 -29V-24H7.6V-29H7.4ZM7.5 -24.1H2.5V-23.9H7.5V-24.1ZM2.6 -24V-30.2891H2.4V-24H2.6ZM2.42972 -30.3602L1.78128 -29.7196L1.92184 -29.5773L2.57028 -30.2179L2.42972 -30.3602ZM1.92227 -29.7191L1.21915 -30.4223L1.07773 -30.2809L1.78085 -29.5777L1.92227 -29.7191ZM1.21919 -30.2809L8.57075 -37.6403L8.42925 -37.7816L1.07769 -30.4222L1.21919 -30.2809ZM13.6 -25V-31.2891H13.4V-25H13.6ZM13.5707 -31.3598L8.57071 -36.3598L8.42929 -36.2184L13.4293 -31.2184L13.5707 -31.3598ZM8.42929 -36.3598L3.42929 -31.3598L3.57071 -31.2184L8.57071 -36.2184L8.42929 -36.3598ZM3.4 -31.2891V-25H3.6V-31.2891H3.4ZM3.5 -24.9H6.5V-25.1H3.5V-24.9ZM6.6 -25V-30H6.4V-25H6.6ZM6.5 -29.9H10.5V-30.1H6.5V-29.9ZM10.4 -30V-25H10.6V-30H10.4ZM10.5 -24.9H13.5V-25.1H10.5V-24.9ZM0.5 10H0.4V10.1H0.5V10ZM0.5 9V8.9H0.4V9H0.5ZM1.5 9H1.6V8.9H1.5V9ZM1.5 10V10.1H1.6V10H1.5ZM0.5 7H0.4V7.1H0.5V7ZM0.5 6V5.9H0.4V6H0.5ZM1.5 6H1.6V5.9H1.5V6ZM1.5 7V7.1H1.6V7H1.5ZM3.5 7H3.4V7.1H3.5V7ZM3.5 6V5.9H3.4V6H3.5ZM16.5 6H16.6V5.9H16.5V6ZM16.5 7V7.1H16.6V7H16.5ZM0.5 4H0.4V4.1H0.5V4ZM0.5 3V2.9H0.4V3H0.5ZM1.5 3H1.6V2.9H1.5V3ZM1.5 4V4.1H1.6V4H1.5ZM3.5 3V2.9H3.4V3H3.5ZM16.5 3H16.6V2.9H16.5V3ZM16.5 4V4.1H16.6V4H16.5ZM3.5 4H3.4V4.1H3.5V4ZM3.5 10H3.4V10.1H3.5V10ZM3.5 9V8.9H3.4V9H3.5ZM16.5 9H16.6V8.9H16.5V9ZM16.5 10V10.1H16.6V10H16.5ZM0.5 13H0.4V13.1H0.5V13ZM0.5 12V11.9H0.4V12H0.5ZM1.5 12H1.6V11.9H1.5V12ZM1.5 13V13.1H1.6V13H1.5ZM3.5 13H3.4V13.1H3.5V13ZM3.5 12V11.9H3.4V12H3.5ZM16.5 12H16.6V11.9H16.5V12ZM16.5 13V13.1H16.6V13H16.5ZM0.6 10V9H0.4V10H0.6ZM0.5 9.1H1.5V8.9H0.5V9.1ZM1.4 9V10H1.6V9H1.4ZM1.5 9.9H0.5V10.1H1.5V9.9ZM0.6 7V6H0.4V7H0.6ZM0.5 6.1H1.5V5.9H0.5V6.1ZM1.4 6V7H1.6V6H1.4ZM1.5 6.9H0.5V7.1H1.5V6.9ZM3.6 7V6H3.4V7H3.6ZM3.5 6.1H16.5V5.9H3.5V6.1ZM16.4 6V7H16.6V6H16.4ZM16.5 6.9H3.5V7.1H16.5V6.9ZM0.6 4V3H0.4V4H0.6ZM0.5 3.1H1.5V2.9H0.5V3.1ZM1.4 3V4H1.6V3H1.4ZM1.5 3.9H0.5V4.1H1.5V3.9ZM3.5 3.1H16.5V2.9H3.5V3.1ZM16.4 3V4H16.6V3H16.4ZM16.5 3.9H3.5V4.1H16.5V3.9ZM3.6 4V3H3.4V4H3.6ZM3.6 10V9H3.4V10H3.6ZM3.5 9.1H16.5V8.9H3.5V9.1ZM16.4 9V10H16.6V9H16.4ZM16.5 9.9H3.5V10.1H16.5V9.9ZM0.6 13V12H0.4V13H0.6ZM0.5 12.1H1.5V11.9H0.5V12.1ZM1.4 12V13H1.6V12H1.4ZM1.5 12.9H0.5V13.1H1.5V12.9ZM3.6 13V12H3.4V13H3.6ZM3.5 12.1H16.5V11.9H3.5V12.1ZM16.4 12V13H16.6V12H16.4ZM16.5 12.9H3.5V13.1H16.5V12.9ZM16.5 49V49.1H16.6V49H16.5ZM13.5 49V48.9H13.4V49H13.5ZM13.5 51V51.1H13.6V51H13.5ZM5.5 51V50.9H5.45858L5.42929 50.9293L5.5 51ZM2.5 54H2.4V54.2414L2.57071 54.0707L2.5 54ZM2.5 51H2.6V50.9H2.5V51ZM0.5 51H0.4V51.1H0.5V51ZM0.5 42V41.9H0.4V42H0.5ZM2.5 42V42.1H2.6V42H2.5ZM2.5 39V38.9H2.4V39H2.5ZM16.5 39H16.6V38.9H16.5V39ZM12.5 43H12.6V42.9H12.5V43ZM1.5 43V42.9H1.4V43H1.5ZM1.5 50H1.4V50.1H1.5V50ZM3.5 50H3.6V49.9H3.5V50ZM3.5 51.5859H3.4V51.8274L3.57071 51.6566L3.5 51.5859ZM4.28125 50.7891L4.20984 50.7191L4.20914 50.7198L4.28125 50.7891ZM5.08594 50V49.9H5.04621L5.01732 49.9273L5.08594 50ZM12.5 50V50.1H12.6V50H12.5ZM15.5 40H15.6V39.9H15.5V40ZM3.5 40V39.9H3.4V40H3.5ZM3.5 42H3.4V42.1H3.5V42ZM13.5 42H13.6V41.9H13.5V42ZM13.5 48H13.4V48.1H13.5V48ZM15.5 48V48.1H15.6V48H15.5ZM16.5 48.9H13.5V49.1H16.5V48.9ZM13.4 49V51H13.6V49H13.4ZM13.5 50.9H5.5V51.1H13.5V50.9ZM5.42929 50.9293L2.42929 53.9293L2.57071 54.0707L5.57071 51.0707L5.42929 50.9293ZM2.6 54V51H2.4V54H2.6ZM2.5 50.9H0.5V51.1H2.5V50.9ZM0.6 51V42H0.4V51H0.6ZM0.5 42.1H2.5V41.9H0.5V42.1ZM2.6 42V39H2.4V42H2.6ZM2.5 39.1H16.5V38.9H2.5V39.1ZM16.4 39V49H16.6V39H16.4ZM12.5 42.9H1.5V43.1H12.5V42.9ZM1.4 43V50H1.6V43H1.4ZM1.5 50.1H3.5V49.9H1.5V50.1ZM3.4 50V51.5859H3.6V50H3.4ZM3.57071 51.6566C3.8368 51.3906 4.09768 51.1245 4.35336 50.8583L4.20914 50.7198C3.9544 50.9849 3.69445 51.2501 3.42929 51.5152L3.57071 51.6566ZM4.35266 50.8591C4.61215 50.5944 4.87944 50.3323 5.15456 50.0727L5.01732 49.9273C4.74035 50.1886 4.47119 50.4525 4.20984 50.7191L4.35266 50.8591ZM5.08594 50.1H12.5V49.9H5.08594V50.1ZM12.6 50V43H12.4V50H12.6ZM15.5 39.9H3.5V40.1H15.5V39.9ZM3.4 40V42H3.6V40H3.4ZM3.5 42.1H13.5V41.9H3.5V42.1ZM13.4 42V48H13.6V42H13.4ZM13.5 48.1H15.5V47.9H13.5V48.1ZM15.6 48V40H15.4V48H15.6ZM6 92.7344L5.97315 92.8307L5.97336 92.8308L6 92.7344ZM4.21094 91.9844L4.1602 92.0705L4.1608 92.0709L4.21094 91.9844ZM2.6875 90.8125L2.61638 90.8828L2.61719 90.8836L2.6875 90.8125ZM1.51562 89.2891L1.4291 89.3392L1.42945 89.3398L1.51562 89.2891ZM0.765625 87.5L0.669239 87.5266L0.669296 87.5268L0.765625 87.5ZM0.765625 83.5078L0.861954 83.5347L0.86201 83.5345L0.765625 83.5078ZM1.51562 81.7109L1.42945 81.6602L1.4291 81.6608L1.51562 81.7109ZM4.21094 79.0234L4.26107 79.11L4.26167 79.1096L4.21094 79.0234ZM6 78.2656L5.97336 78.1692L5.97315 78.1693L6 78.2656ZM9.99219 78.2656L9.96534 78.362L9.96554 78.362L9.99219 78.2656ZM11.7891 79.0234L11.7383 79.1096L11.7389 79.11L11.7891 79.0234ZM13.3047 80.1953L13.2336 80.2656L13.2344 80.2664L13.3047 80.1953ZM14.4766 81.7109L14.39 81.7611L14.3904 81.7617L14.4766 81.7109ZM15.2344 83.5078L15.138 83.5345L15.138 83.5347L15.2344 83.5078ZM15.2344 87.5L15.3307 87.5268L15.3308 87.5266L15.2344 87.5ZM14.4766 89.2891L14.3904 89.2383L14.39 89.2389L14.4766 89.2891ZM13.3047 90.8125L13.234 90.7418L13.3047 90.8125ZM11.7891 91.9844L11.8392 92.0709L11.8398 92.0705L11.7891 91.9844ZM9.99219 92.7344L9.96554 92.638L9.96534 92.638L9.99219 92.7344ZM4.71875 79.8906L4.66854 79.8041L4.66813 79.8044L4.71875 79.8906ZM2.39062 82.2266L2.47687 82.2772L2.4771 82.2768L2.39062 82.2266ZM1.73438 83.7812L1.8306 83.8085L1.83066 83.8082L1.73438 83.7812ZM1.73438 87.2266L1.63809 87.2536L1.63815 87.2538L1.73438 87.2266ZM2.39062 88.7812L2.30415 88.8315L2.30438 88.8319L2.39062 88.7812ZM4.71875 91.1094L4.66813 91.1956L4.66854 91.1959L4.71875 91.1094ZM9.71875 91.7656L9.69175 91.6693L9.69152 91.6694L9.71875 91.7656ZM11.2734 91.1094L11.2232 91.0229L11.2228 91.0231L11.2734 91.1094ZM12.5938 90.0938L12.523 90.023L12.5938 90.0938ZM13.6094 88.7812L13.6956 88.8319L13.6959 88.8315L13.6094 88.7812ZM14.2656 83.7812L14.1693 83.8082L14.1694 83.8085L14.2656 83.7812ZM13.6094 82.2266L13.5229 82.2768L13.5231 82.2772L13.6094 82.2266ZM11.2734 79.8906L11.2228 79.9769L11.2232 79.9771L11.2734 79.8906ZM9.71875 79.2344L9.69152 79.3306L9.69175 79.3307L9.71875 79.2344ZM7.5 84V83.9H7.4V84H7.5ZM8.5 84H8.6V83.9H8.5V84ZM8.5 89V89.1H8.6V89H8.5ZM7.5 89H7.4V89.1H7.5V89ZM7.5 82V81.9H7.4V82H7.5ZM8.5 82H8.6V81.9H8.5V82ZM8.5 83V83.1H8.6V83H8.5ZM7.5 83H7.4V83.1H7.5V83ZM8 92.9C7.31591 92.9 6.65823 92.8126 6.02664 92.638L5.97336 92.8308C6.62302 93.0103 7.29867 93.1 8 93.1V92.9ZM6.02685 92.638C5.39938 92.4632 4.81087 92.2164 4.26107 91.8979L4.1608 92.0709C4.72559 92.3982 5.32979 92.6514 5.97315 92.8307L6.02685 92.638ZM4.26167 91.8982C3.71148 91.5743 3.21024 91.1887 2.75781 90.7414L2.61719 90.8836C3.08142 91.3426 3.59581 91.7382 4.1602 92.0705L4.26167 91.8982ZM2.75861 90.7422C2.31132 90.2898 1.92575 89.7885 1.6018 89.2383L1.42945 89.3398C1.76175 89.9042 2.15743 90.4186 2.61639 90.8828L2.75861 90.7422ZM1.60215 89.2389C1.28357 88.6891 1.03682 88.1006 0.861954 87.4732L0.669296 87.5268C0.848594 88.1702 1.10184 88.7744 1.4291 89.3392L1.60215 89.2389ZM0.86201 87.4734C0.687425 86.8418 0.6 86.1841 0.6 85.5H0.4C0.4 86.2013 0.489658 86.877 0.66924 87.5266L0.86201 87.4734ZM0.6 85.5C0.6 84.8159 0.687426 84.1609 0.861954 83.5347L0.669296 83.481C0.489657 84.1256 0.4 84.7987 0.4 85.5H0.6ZM0.86201 83.5345C1.03689 82.9018 1.28364 82.3108 1.60215 81.7611L1.4291 81.6608C1.10177 82.2257 0.848522 82.8326 0.66924 83.4812L0.86201 83.5345ZM1.6018 81.7617C1.92567 81.2116 2.31112 80.7131 2.75821 80.266L2.61679 80.1246C2.15763 80.5838 1.76183 81.0957 1.42945 81.6602L1.6018 81.7617ZM2.75821 80.266C3.21044 79.8138 3.71135 79.4285 4.26107 79.11L4.1608 78.9369C3.59595 79.2642 3.08123 79.6602 2.61679 80.1246L2.75821 80.266ZM4.26167 79.1096C4.81133 78.786 5.39963 78.5368 6.02685 78.362L5.97315 78.1693C5.32953 78.3487 4.72513 78.6046 4.1602 78.9373L4.26167 79.1096ZM6.02664 78.362C6.65823 78.1874 7.31591 78.1 8 78.1V77.9C7.29867 77.9 6.62302 77.9897 5.97336 78.1692L6.02664 78.362ZM8 78.1C8.68409 78.1 9.33909 78.1874 9.96534 78.362L10.019 78.1693C9.37445 77.9897 8.70133 77.9 8 77.9V78.1ZM9.96554 78.362C10.598 78.5368 11.1888 78.7861 11.7383 79.1096L11.8398 78.9373C11.2748 78.6046 10.6677 78.3486 10.0188 78.1692L9.96554 78.362ZM11.7389 79.11C12.2885 79.4284 12.7867 79.8136 13.2336 80.2656L13.3758 80.125C12.9164 79.6604 12.4042 79.2643 11.8392 78.9369L11.7389 79.11ZM13.2344 80.2664C13.6864 80.7133 14.0716 81.2115 14.39 81.7611L14.5631 81.6608C14.2357 81.0958 13.8396 80.5836 13.375 80.1242L13.2344 80.2664ZM14.3904 81.7617C14.7139 82.3112 14.9632 82.902 15.138 83.5345L15.3308 83.4812C15.1514 82.8323 14.8954 82.2252 14.5627 81.6602L14.3904 81.7617ZM15.138 83.5347C15.3126 84.1609 15.4 84.8159 15.4 85.5H15.6C15.6 84.7987 15.5103 84.1256 15.3307 83.481L15.138 83.5347ZM15.4 85.5C15.4 86.1841 15.3126 86.8418 15.138 87.4734L15.3308 87.5266C15.5103 86.877 15.6 86.2013 15.6 85.5H15.4ZM15.138 87.4732C14.9632 88.1004 14.714 88.6887 14.3904 89.2383L14.5627 89.3398C14.8954 88.7749 15.1513 88.1705 15.3307 87.5268L15.138 87.4732ZM14.39 89.2389C14.0715 89.7887 13.6862 90.2896 13.234 90.7418L13.3754 90.8832C13.8398 90.4188 14.2358 89.9041 14.5631 89.3392L14.39 89.2389ZM13.234 90.7418C12.7869 91.1889 12.2884 91.5743 11.7383 91.8982L11.8398 92.0705C12.4043 91.7382 12.9162 91.3424 13.3754 90.8832L13.234 90.7418ZM11.7389 91.8979C11.1892 92.2164 10.5982 92.4631 9.96554 92.638L10.0188 92.8308C10.6674 92.6515 11.2743 92.3982 11.8392 92.0709L11.7389 91.8979ZM9.96534 92.638C9.33909 92.8126 8.68409 92.9 8 92.9V93.1C8.70133 93.1 9.37445 93.0103 10.019 92.8307L9.96534 92.638ZM8 78.9C7.39224 78.9 6.80753 78.9793 6.24621 79.1382L6.30067 79.3306C6.84351 79.177 7.40984 79.1 8 79.1V78.9ZM6.24621 79.1382C5.68628 79.2966 5.16031 79.5186 4.66854 79.8041L4.76896 79.9771C5.24594 79.7001 5.75643 79.4846 6.30067 79.3306L6.24621 79.1382ZM4.66813 79.8044C4.18158 80.09 3.73734 80.4337 3.33554 80.8355L3.47696 80.977C3.86683 80.5871 4.29759 80.2538 4.76937 79.9769L4.66813 79.8044ZM3.33554 80.8355C2.93358 81.2375 2.58974 81.6845 2.30415 82.1763L2.4771 82.2768C2.75401 81.7999 3.08725 81.3667 3.47696 80.977L3.33554 80.8355ZM2.30438 82.1759C2.01861 82.6628 1.79656 83.189 1.63809 83.7543L1.83066 83.8082C1.98469 83.2589 2.20014 82.7486 2.47687 82.2772L2.30438 82.1759ZM1.63815 83.754C1.47931 84.3153 1.4 84.8974 1.4 85.5H1.6C1.6 84.9151 1.67694 84.3514 1.8306 83.8085L1.63815 83.754ZM1.4 85.5C1.4 86.1026 1.47931 86.6873 1.63809 87.2536L1.83066 87.1996C1.67694 86.6513 1.6 86.0849 1.6 85.5H1.4ZM1.63815 87.2538C1.79662 87.8137 2.0186 88.3397 2.30415 88.8315L2.4771 88.731C2.20015 88.2541 1.98463 87.7436 1.8306 87.1993L1.63815 87.2538ZM2.30438 88.8319C2.58997 89.3184 2.93374 89.7627 3.33554 90.1645L3.47696 90.023C3.08709 89.6332 2.75378 89.2024 2.47687 88.7306L2.30438 88.8319ZM3.33554 90.1645C3.73734 90.5663 4.18158 90.91 4.66813 91.1956L4.76937 91.0231C4.29759 90.7462 3.86683 90.4129 3.47696 90.023L3.33554 90.1645ZM4.66854 91.1959C5.16031 91.4814 5.68628 91.7034 6.24621 91.8618L6.30067 91.6694C5.75643 91.5154 5.24594 91.2999 4.76896 91.0229L4.66854 91.1959ZM6.24621 91.8618C6.80753 92.0207 7.39224 92.1 8 92.1V91.9C7.40984 91.9 6.84351 91.823 6.30067 91.6694L6.24621 91.8618ZM8 92.1C8.60264 92.1 9.18473 92.0207 9.74598 91.8618L9.69152 91.6694C9.1486 91.8231 8.58486 91.9 8 91.9V92.1ZM9.74575 91.8619C10.311 91.7034 10.8372 91.4814 11.3241 91.1956L11.2228 91.0231C10.7514 91.2999 10.2411 91.5153 9.69175 91.6693L9.74575 91.8619ZM11.3237 91.1959C11.8155 90.9103 12.2625 90.5664 12.6645 90.1645L12.523 90.023C12.1333 90.4127 11.7001 90.746 11.2232 91.0229L11.3237 91.1959ZM12.6645 90.1645C13.0663 89.7627 13.41 89.3184 13.6956 88.8319L13.5231 88.7306C13.2462 89.2024 12.9129 89.6332 12.523 90.023L12.6645 90.1645ZM13.6959 88.8315C13.9814 88.3397 14.2034 87.8137 14.3618 87.2538L14.1694 87.1993C14.0154 87.7436 13.7999 88.2541 13.5229 88.731L13.6959 88.8315ZM14.3618 87.2538C14.5207 86.6925 14.6 86.1078 14.6 85.5H14.4C14.4 86.0902 14.323 86.6565 14.1694 87.1993L14.3618 87.2538ZM14.6 85.5C14.6 84.8974 14.5207 84.3153 14.3618 83.754L14.1694 83.8085C14.3231 84.3514 14.4 84.9151 14.4 85.5H14.6ZM14.3619 83.7543C14.2034 83.189 13.9814 82.6628 13.6956 82.1759L13.5231 82.2772C13.7999 82.7486 14.0153 83.2589 14.1693 83.8082L14.3619 83.7543ZM13.6959 82.1763C13.4103 81.6845 13.0664 81.2375 12.6645 80.8355L12.523 80.977C12.9127 81.3667 13.246 81.7999 13.5229 82.2768L13.6959 82.1763ZM12.6645 80.8355C12.2625 80.4336 11.8155 80.0897 11.3237 79.8041L11.2232 79.9771C11.7001 80.254 12.1333 80.5873 12.523 80.977L12.6645 80.8355ZM11.3241 79.8044C10.8372 79.5186 10.311 79.2966 9.74575 79.1381L9.69175 79.3307C10.2411 79.4847 10.7514 79.7001 11.2228 79.9769L11.3241 79.8044ZM9.74598 79.1382C9.18473 78.9793 8.60264 78.9 8 78.9V79.1C8.58486 79.1 9.1486 79.1769 9.69152 79.3306L9.74598 79.1382ZM7.5 84.1H8.5V83.9H7.5V84.1ZM8.4 84V89H8.6V84H8.4ZM8.5 88.9H7.5V89.1H8.5V88.9ZM7.6 89V84H7.4V89H7.6ZM7.5 82.1H8.5V81.9H7.5V82.1ZM8.4 82V83H8.6V82H8.4ZM8.5 82.9H7.5V83.1H8.5V82.9ZM7.6 83V82H7.4V83H7.6Z" fill="white"/>
</g>
<defs>
<clipPath id="clip0_248_461">
<rect width="17" height="17" fill="white"/>
</clipPath>
</defs>
</svg>
