<svg width="22" height="13" viewBox="0 0 22 13" fill="none" xmlns="http://www.w3.org/2000/svg">
<path d="M22 1.875H0V0.5H22V1.875ZM22 12.875H0V11.5H22V12.875ZM22 7.36426H0V6H22V7.36426Z" fill="black"/>
<path d="M22 1.875V1.975H22.1V1.875H22ZM0 1.875H-0.1V1.975H0V1.875ZM0 0.5V0.4H-0.1V0.5H0ZM22 0.5H22.1V0.4H22V0.5ZM22 12.875V12.975H22.1V12.875H22ZM0 12.875H-0.1V12.975H0V12.875ZM0 11.5V11.4H-0.1V11.5H0ZM22 11.5H22.1V11.4H22V11.5ZM22 7.36426V7.46426H22.1V7.36426H22ZM0 7.36426H-0.1V7.46426H0V7.36426ZM0 6V5.9H-0.1V6H0ZM22 6H22.1V5.9H22V6ZM22 1.775H0V1.975H22V1.775ZM0.1 1.875V0.5H-0.1V1.875H0.1ZM0 0.6H22V0.4H0V0.6ZM21.9 0.5V1.875H22.1V0.5H21.9ZM22 12.775H0V12.975H22V12.775ZM0.1 12.875V11.5H-0.1V12.875H0.1ZM0 11.6H22V11.4H0V11.6ZM21.9 11.5V12.875H22.1V11.5H21.9ZM22 7.26426H0V7.46426H22V7.26426ZM0.1 7.36426V6H-0.1V7.36426H0.1ZM0 6.1H22V5.9H0V6.1ZM21.9 6V7.36426H22.1V6H21.9Z" fill="black"/>
</svg>
