<svg width="16" height="10" viewBox="0 0 16 10" fill="none" xmlns="http://www.w3.org/2000/svg">
<path d="M0 7V6H1V7H0ZM0 4V3H1V4H0ZM3 4V3H16V4H3ZM0 1V0H1V1H0ZM3 0H16V1H3V0ZM3 7V6H16V7H3ZM0 10V9H1V10H0ZM3 10V9H16V10H3Z" fill="black"/>
<path d="M0 7H-0.1V7.1H0V7ZM0 6V5.9H-0.1V6H0ZM1 6H1.1V5.9H1V6ZM1 7V7.1H1.1V7H1ZM0 4H-0.1V4.1H0V4ZM0 3V2.9H-0.1V3H0ZM1 3H1.1V2.9H1V3ZM1 4V4.1H1.1V4H1ZM3 4H2.9V4.1H3V4ZM3 3V2.9H2.9V3H3ZM16 3H16.1V2.9H16V3ZM16 4V4.1H16.1V4H16ZM0 1H-0.1V1.1H0V1ZM0 0V-0.1H-0.1V0H0ZM1 0H1.1V-0.1H1V0ZM1 1V1.1H1.1V1H1ZM3 0V-0.1H2.9V0H3ZM16 0H16.1V-0.1H16V0ZM16 1V1.1H16.1V1H16ZM3 1H2.9V1.1H3V1ZM3 7H2.9V7.1H3V7ZM3 6V5.9H2.9V6H3ZM16 6H16.1V5.9H16V6ZM16 7V7.1H16.1V7H16ZM0 10H-0.1V10.1H0V10ZM0 9V8.9H-0.1V9H0ZM1 9H1.1V8.9H1V9ZM1 10V10.1H1.1V10H1ZM3 10H2.9V10.1H3V10ZM3 9V8.9H2.9V9H3ZM16 9H16.1V8.9H16V9ZM16 10V10.1H16.1V10H16ZM0.1 7V6H-0.1V7H0.1ZM0 6.1H1V5.9H0V6.1ZM0.9 6V7H1.1V6H0.9ZM1 6.9H0V7.1H1V6.9ZM0.1 4V3H-0.1V4H0.1ZM0 3.1H1V2.9H0V3.1ZM0.9 3V4H1.1V3H0.9ZM1 3.9H0V4.1H1V3.9ZM3.1 4V3H2.9V4H3.1ZM3 3.1H16V2.9H3V3.1ZM15.9 3V4H16.1V3H15.9ZM16 3.9H3V4.1H16V3.9ZM0.1 1V0H-0.1V1H0.1ZM0 0.1H1V-0.1H0V0.1ZM0.9 0V1H1.1V0H0.9ZM1 0.9H0V1.1H1V0.9ZM3 0.1H16V-0.1H3V0.1ZM15.9 0V1H16.1V0H15.9ZM16 0.9H3V1.1H16V0.9ZM3.1 1V0H2.9V1H3.1ZM3.1 7V6H2.9V7H3.1ZM3 6.1H16V5.9H3V6.1ZM15.9 6V7H16.1V6H15.9ZM16 6.9H3V7.1H16V6.9ZM0.1 10V9H-0.1V10H0.1ZM0 9.1H1V8.9H0V9.1ZM0.9 9V10H1.1V9H0.9ZM1 9.9H0V10.1H1V9.9ZM3.1 10V9H2.9V10H3.1ZM3 9.1H16V8.9H3V9.1ZM15.9 9V10H16.1V9H15.9ZM16 9.9H3V10.1H16V9.9Z" fill="black"/>
</svg>
