<svg width="16" height="14" viewBox="0 0 16 14" fill="none" xmlns="http://www.w3.org/2000/svg">
<path d="M8 0.289062L15.3516 7.64844L14.6484 8.35156L14 7.71094V14H9V9H7V14H2V7.71094L1.35156 8.35156L0.648438 7.64844L8 0.289062ZM13 13V6.71094L8 1.71094L3 6.71094V13H6V8H10V13H13Z" fill="black"/>
<path d="M8 0.289062L8.07075 0.218389L8 0.147566L7.92925 0.218389L8 0.289062ZM15.3516 7.64844L15.4223 7.71915L15.4929 7.64848L15.4223 7.57776L15.3516 7.64844ZM14.6484 8.35156L14.5782 8.4227L14.6489 8.49256L14.7191 8.42227L14.6484 8.35156ZM14 7.71094L14.0703 7.6398L13.9 7.47157V7.71094H14ZM14 14V14.1H14.1V14H14ZM9 14H8.9V14.1H9V14ZM9 9H9.1V8.9H9V9ZM7 9V8.9H6.9V9H7ZM7 14V14.1H7.1V14H7ZM2 14H1.9V14.1H2V14ZM2 7.71094H2.1V7.47157L1.92972 7.6398L2 7.71094ZM1.35156 8.35156L1.28085 8.42227L1.35114 8.49256L1.42184 8.4227L1.35156 8.35156ZM0.648438 7.64844L0.577689 7.57776L0.507054 7.64848L0.577727 7.71915L0.648438 7.64844ZM13 13V13.1H13.1V13H13ZM13 6.71094H13.1V6.66952L13.0707 6.64023L13 6.71094ZM8 1.71094L8.07071 1.64023L8 1.56952L7.92929 1.64023L8 1.71094ZM3 6.71094L2.92929 6.64023L2.9 6.66952V6.71094H3ZM3 13H2.9V13.1H3V13ZM6 13V13.1H6.1V13H6ZM6 8V7.9H5.9V8H6ZM10 8H10.1V7.9H10V8ZM10 13H9.9V13.1H10V13ZM7.92925 0.359736L15.2808 7.71911L15.4223 7.57776L8.07075 0.218389L7.92925 0.359736ZM15.2809 7.57773L14.5777 8.28085L14.7191 8.42227L15.4223 7.71915L15.2809 7.57773ZM14.7187 8.28042L14.0703 7.6398L13.9297 7.78208L14.5782 8.4227L14.7187 8.28042ZM13.9 7.71094V14H14.1V7.71094H13.9ZM14 13.9H9V14.1H14V13.9ZM9.1 14V9H8.9V14H9.1ZM9 8.9H7V9.1H9V8.9ZM6.9 9V14H7.1V9H6.9ZM7 13.9H2V14.1H7V13.9ZM2.1 14V7.71094H1.9V14H2.1ZM1.92972 7.6398L1.28128 8.28042L1.42184 8.4227L2.07028 7.78208L1.92972 7.6398ZM1.42227 8.28085L0.719148 7.57773L0.577727 7.71915L1.28085 8.42227L1.42227 8.28085ZM0.719186 7.71911L8.07075 0.359736L7.92925 0.218389L0.577689 7.57776L0.719186 7.71911ZM13.1 13V6.71094H12.9V13H13.1ZM13.0707 6.64023L8.07071 1.64023L7.92929 1.78165L12.9293 6.78165L13.0707 6.64023ZM7.92929 1.64023L2.92929 6.64023L3.07071 6.78165L8.07071 1.78165L7.92929 1.64023ZM2.9 6.71094V13H3.1V6.71094H2.9ZM3 13.1H6V12.9H3V13.1ZM6.1 13V8H5.9V13H6.1ZM6 8.1H10V7.9H6V8.1ZM9.9 8V13H10.1V8H9.9ZM10 13.1H13V12.9H10V13.1Z" fill="black"/>
</svg>
