<svg width="15" height="15" viewBox="0 0 15 15" fill="none" xmlns="http://www.w3.org/2000/svg">
<path d="M7.5 15C6.80729 15 6.14062 14.9115 5.5 14.7344C4.86458 14.5573 4.26823 14.3073 3.71094 13.9844C3.15365 13.6562 2.64583 13.2656 2.1875 12.8125C1.73438 12.3542 1.34375 11.8464 1.01562 11.2891C0.692708 10.7318 0.442708 10.1354 0.265625 9.5C0.0885417 8.85938 0 8.19271 0 7.5C0 6.80729 0.0885417 6.14323 0.265625 5.50781C0.442708 4.86719 0.692708 4.26823 1.01562 3.71094C1.34375 3.15365 1.73438 2.64844 2.1875 2.19531C2.64583 1.73698 3.15365 1.34635 3.71094 1.02344C4.26823 0.695312 4.86458 0.442708 5.5 0.265625C6.14062 0.0885417 6.80729 0 7.5 0C8.19271 0 8.85677 0.0885417 9.49219 0.265625C10.1328 0.442708 10.7318 0.695312 11.2891 1.02344C11.8464 1.34635 12.3516 1.73698 12.8047 2.19531C13.263 2.64844 13.6536 3.15365 13.9766 3.71094C14.3047 4.26823 14.5573 4.86719 14.7344 5.50781C14.9115 6.14323 15 6.80729 15 7.5C15 8.19271 14.9115 8.85938 14.7344 9.5C14.5573 10.1354 14.3047 10.7318 13.9766 11.2891C13.6536 11.8464 13.263 12.3542 12.8047 12.8125C12.3516 13.2656 11.8464 13.6562 11.2891 13.9844C10.7318 14.3073 10.1328 14.5573 9.49219 14.7344C8.85677 14.9115 8.19271 15 7.5 15ZM7.5 1C6.90104 1 6.32552 1.07812 5.77344 1.23438C5.22135 1.39062 4.70312 1.60938 4.21875 1.89062C3.73958 2.17188 3.30208 2.51042 2.90625 2.90625C2.51042 3.30208 2.17188 3.74219 1.89062 4.22656C1.60938 4.70573 1.39062 5.22396 1.23438 5.78125C1.07812 6.33333 1 6.90625 1 7.5C1 8.09375 1.07812 8.66927 1.23438 9.22656C1.39062 9.77865 1.60938 10.2969 1.89062 10.7812C2.17188 11.2604 2.51042 11.6979 2.90625 12.0938C3.30208 12.4896 3.73958 12.8281 4.21875 13.1094C4.70312 13.3906 5.22135 13.6094 5.77344 13.7656C6.32552 13.9219 6.90104 14 7.5 14C8.09375 14 8.66667 13.9219 9.21875 13.7656C9.77604 13.6094 10.2943 13.3906 10.7734 13.1094C11.2578 12.8281 11.6979 12.4896 12.0938 12.0938C12.4896 11.6979 12.8281 11.2604 13.1094 10.7812C13.3906 10.2969 13.6094 9.77865 13.7656 9.22656C13.9219 8.67448 14 8.09896 14 7.5C14 6.90625 13.9219 6.33333 13.7656 5.78125C13.6094 5.22396 13.3906 4.70573 13.1094 4.22656C12.8281 3.74219 12.4896 3.30208 12.0938 2.90625C11.6979 2.51042 11.2578 2.17188 10.7734 1.89062C10.2943 1.60938 9.77604 1.39062 9.21875 1.23438C8.66667 1.07812 8.09375 1 7.5 1ZM7 6H8V11H7V6ZM7 4H8V5H7V4Z" fill="black"/>
<path d="M5.5 14.7344L5.47315 14.8307L5.47336 14.8308L5.5 14.7344ZM3.71094 13.9844L3.6602 14.0705L3.6608 14.0709L3.71094 13.9844ZM2.1875 12.8125L2.11638 12.8828L2.11719 12.8836L2.1875 12.8125ZM1.01562 11.2891L0.929099 11.3392L0.929452 11.3398L1.01562 11.2891ZM0.265625 9.5L0.169239 9.52664L0.169296 9.52685L0.265625 9.5ZM0.265625 5.50781L0.361954 5.53466L0.36201 5.53446L0.265625 5.50781ZM1.01562 3.71094L0.92945 3.6602L0.929101 3.6608L1.01562 3.71094ZM3.71094 1.02344L3.76107 1.10996L3.76167 1.10961L3.71094 1.02344ZM5.5 0.265625L5.47336 0.169239L5.47315 0.169296L5.5 0.265625ZM9.49219 0.265625L9.46534 0.361954L9.46554 0.36201L9.49219 0.265625ZM11.2891 1.02344L11.2383 1.10961L11.2389 1.10996L11.2891 1.02344ZM12.8047 2.19531L12.7336 2.26562L12.7344 2.26643L12.8047 2.19531ZM13.9766 3.71094L13.89 3.76107L13.8904 3.76167L13.9766 3.71094ZM14.7344 5.50781L14.638 5.53446L14.638 5.53466L14.7344 5.50781ZM14.7344 9.5L14.8307 9.52685L14.8308 9.52664L14.7344 9.5ZM13.9766 11.2891L13.8904 11.2383L13.89 11.2389L13.9766 11.2891ZM12.8047 12.8125L12.734 12.7418L12.8047 12.8125ZM11.2891 13.9844L11.3392 14.0709L11.3398 14.0705L11.2891 13.9844ZM9.49219 14.7344L9.46554 14.638L9.46534 14.638L9.49219 14.7344ZM4.21875 1.89062L4.16854 1.80415L4.16813 1.80438L4.21875 1.89062ZM1.89062 4.22656L1.97687 4.27718L1.9771 4.27678L1.89062 4.22656ZM1.23438 5.78125L1.3306 5.80848L1.33066 5.80825L1.23438 5.78125ZM1.23438 9.22656L1.13809 9.25356L1.13815 9.25379L1.23438 9.22656ZM1.89062 10.7812L1.80415 10.8315L1.80438 10.8319L1.89062 10.7812ZM4.21875 13.1094L4.16813 13.1956L4.16854 13.1959L4.21875 13.1094ZM9.21875 13.7656L9.19175 13.6693L9.19152 13.6694L9.21875 13.7656ZM10.7734 13.1094L10.7232 13.0229L10.7228 13.0231L10.7734 13.1094ZM12.0938 12.0938L12.023 12.023L12.0938 12.0938ZM13.1094 10.7812L13.1956 10.8319L13.1959 10.8315L13.1094 10.7812ZM13.7656 5.78125L13.6693 5.80825L13.6694 5.80848L13.7656 5.78125ZM13.1094 4.22656L13.0229 4.27678L13.0231 4.27718L13.1094 4.22656ZM10.7734 1.89062L10.7228 1.97687L10.7232 1.9771L10.7734 1.89062ZM9.21875 1.23438L9.19152 1.3306L9.19175 1.33066L9.21875 1.23438ZM7 6V5.9H6.9V6H7ZM8 6H8.1V5.9H8V6ZM8 11V11.1H8.1V11H8ZM7 11H6.9V11.1H7V11ZM7 4V3.9H6.9V4H7ZM8 4H8.1V3.9H8V4ZM8 5V5.1H8.1V5H8ZM7 5H6.9V5.1H7V5ZM7.5 14.9C6.81591 14.9 6.15823 14.8126 5.52664 14.638L5.47336 14.8308C6.12302 15.0103 6.79867 15.1 7.5 15.1V14.9ZM5.52685 14.638C4.89938 14.4632 4.31087 14.2164 3.76107 13.8979L3.6608 14.0709C4.22559 14.3982 4.82979 14.6514 5.47315 14.8307L5.52685 14.638ZM3.76167 13.8982C3.21148 13.5743 2.71024 13.1887 2.25781 12.7414L2.11719 12.8836C2.58142 13.3426 3.09581 13.7382 3.6602 14.0705L3.76167 13.8982ZM2.25861 12.7422C1.81132 12.2898 1.42575 11.7885 1.1018 11.2383L0.929452 11.3398C1.26175 11.9042 1.65743 12.4186 2.11639 12.8828L2.25861 12.7422ZM1.10215 11.2389C0.783574 10.6891 0.536822 10.1006 0.361954 9.47315L0.169296 9.52685C0.348594 10.1702 0.601842 10.7744 0.929101 11.3392L1.10215 11.2389ZM0.36201 9.47336C0.187425 8.84177 0.1 8.18409 0.1 7.5H-0.1C-0.1 8.20133 -0.010342 8.87698 0.16924 9.52664L0.36201 9.47336ZM0.1 7.5C0.1 6.81591 0.187426 6.16091 0.361954 5.53466L0.169296 5.48097C-0.0103427 6.12555 -0.1 6.79867 -0.1 7.5H0.1ZM0.36201 5.53446C0.536895 4.90179 0.783643 4.31075 1.10215 3.76107L0.929101 3.6608C0.601774 4.2257 0.348522 4.83259 0.16924 5.48117L0.36201 5.53446ZM1.1018 3.76167C1.42567 3.2116 1.81112 2.71312 2.25821 2.26602L2.11679 2.1246C1.65763 2.58376 1.26183 3.09569 0.929452 3.6602L1.1018 3.76167ZM2.25821 2.26602C2.71044 1.81379 3.21135 1.4285 3.76107 1.10996L3.6608 0.936913C3.09595 1.26421 2.58123 1.66017 2.11679 2.1246L2.25821 2.26602ZM3.76167 1.10961C4.31133 0.785982 4.89963 0.536751 5.52685 0.361954L5.47315 0.169296C4.82953 0.348665 4.22513 0.604643 3.6602 0.937265L3.76167 1.10961ZM5.52664 0.36201C6.15823 0.187425 6.81591 0.1 7.5 0.1V-0.1C6.79867 -0.1 6.12302 -0.010342 5.47336 0.16924L5.52664 0.36201ZM7.5 0.1C8.18409 0.1 8.83909 0.187426 9.46534 0.361954L9.51903 0.169296C8.87445 -0.0103427 8.20133 -0.1 7.5 -0.1V0.1ZM9.46554 0.36201C10.098 0.536825 10.6888 0.786052 11.2383 1.10961L11.3398 0.937265C10.7748 0.604573 10.1677 0.348592 9.51883 0.16924L9.46554 0.36201ZM11.2389 1.10996C11.7885 1.42842 12.2867 1.81359 12.7336 2.26562L12.8758 2.12501C12.4164 1.66036 11.9042 1.26428 11.3392 0.936913L11.2389 1.10996ZM12.7344 2.26643C13.1864 2.71331 13.5716 3.21147 13.89 3.76107L14.0631 3.6608C13.7357 3.09582 13.3396 2.58356 12.875 2.1242L12.7344 2.26643ZM13.8904 3.76167C14.2139 4.31121 14.4632 4.90204 14.638 5.53446L14.8308 5.48117C14.6514 4.83234 14.3954 4.22525 14.0627 3.6602L13.8904 3.76167ZM14.638 5.53466C14.8126 6.16091 14.9 6.81591 14.9 7.5H15.1C15.1 6.79867 15.0103 6.12555 14.8307 5.48097L14.638 5.53466ZM14.9 7.5C14.9 8.18409 14.8126 8.84177 14.638 9.47336L14.8308 9.52664C15.0103 8.87698 15.1 8.20133 15.1 7.5H14.9ZM14.638 9.47315C14.4632 10.1004 14.214 10.6887 13.8904 11.2383L14.0627 11.3398C14.3954 10.7749 14.6513 10.1705 14.8307 9.52685L14.638 9.47315ZM13.89 11.2389C13.5715 11.7887 13.1862 12.2896 12.734 12.7418L12.8754 12.8832C13.3398 12.4188 13.7358 11.9041 14.0631 11.3392L13.89 11.2389ZM12.734 12.7418C12.2869 13.1889 11.7884 13.5743 11.2383 13.8982L11.3398 14.0705C11.9043 13.7382 12.4162 13.3424 12.8754 12.8832L12.734 12.7418ZM11.2389 13.8979C10.6892 14.2164 10.0982 14.4631 9.46554 14.638L9.51883 14.8308C10.1674 14.6515 10.7743 14.3982 11.3392 14.0709L11.2389 13.8979ZM9.46534 14.638C8.83909 14.8126 8.18409 14.9 7.5 14.9V15.1C8.20133 15.1 8.87445 15.0103 9.51903 14.8307L9.46534 14.638ZM7.5 0.9C6.89224 0.9 6.30753 0.979289 5.74621 1.13815L5.80067 1.3306C6.34351 1.17696 6.90984 1.1 7.5 1.1V0.9ZM5.74621 1.13815C5.18628 1.29662 4.66031 1.5186 4.16854 1.80415L4.26896 1.9771C4.74594 1.70015 5.25643 1.48463 5.80067 1.3306L5.74621 1.13815ZM4.16813 1.80438C3.68158 2.08997 3.23734 2.43374 2.83554 2.83554L2.97696 2.97696C3.36683 2.58709 3.79759 2.25378 4.26937 1.97687L4.16813 1.80438ZM2.83554 2.83554C2.43358 3.2375 2.08974 3.68449 1.80415 4.17635L1.9771 4.27678C2.25401 3.79988 2.58725 3.36667 2.97696 2.97696L2.83554 2.83554ZM1.80438 4.17594C1.51861 4.66282 1.29656 5.18903 1.13809 5.75425L1.33066 5.80825C1.48469 5.25888 1.70014 4.74864 1.97687 4.27718L1.80438 4.17594ZM1.13815 5.75402C0.97931 6.31527 0.9 6.89736 0.9 7.5H1.1C1.1 6.91514 1.17694 6.3514 1.3306 5.80848L1.13815 5.75402ZM0.9 7.5C0.9 8.10264 0.979311 8.68725 1.13809 9.25356L1.33066 9.19957C1.17694 8.65129 1.1 8.08486 1.1 7.5H0.9ZM1.13815 9.25379C1.29662 9.81372 1.5186 10.3397 1.80415 10.8315L1.9771 10.731C1.70015 10.2541 1.48463 9.74357 1.3306 9.19933L1.13815 9.25379ZM1.80438 10.8319C2.08997 11.3184 2.43374 11.7627 2.83554 12.1645L2.97696 12.023C2.58709 11.6332 2.25378 11.2024 1.97687 10.7306L1.80438 10.8319ZM2.83554 12.1645C3.23734 12.5663 3.68158 12.91 4.16813 13.1956L4.26937 13.0231C3.79759 12.7462 3.36683 12.4129 2.97696 12.023L2.83554 12.1645ZM4.16854 13.1959C4.66031 13.4814 5.18628 13.7034 5.74621 13.8618L5.80067 13.6694C5.25643 13.5154 4.74594 13.2999 4.26896 13.0229L4.16854 13.1959ZM5.74621 13.8618C6.30753 14.0207 6.89224 14.1 7.5 14.1V13.9C6.90984 13.9 6.34351 13.823 5.80067 13.6694L5.74621 13.8618ZM7.5 14.1C8.10264 14.1 8.68473 14.0207 9.24598 13.8618L9.19152 13.6694C8.6486 13.8231 8.08486 13.9 7.5 13.9V14.1ZM9.24575 13.8619C9.81097 13.7034 10.3372 13.4814 10.8241 13.1956L10.7228 13.0231C10.2514 13.2999 9.74112 13.5153 9.19175 13.6693L9.24575 13.8619ZM10.8237 13.1959C11.3155 12.9103 11.7625 12.5664 12.1645 12.1645L12.023 12.023C11.6333 12.4127 11.2001 12.746 10.7232 13.0229L10.8237 13.1959ZM12.1645 12.1645C12.5663 11.7627 12.91 11.3184 13.1956 10.8319L13.0231 10.7306C12.7462 11.2024 12.4129 11.6332 12.023 12.023L12.1645 12.1645ZM13.1959 10.8315C13.4814 10.3397 13.7034 9.81372 13.8618 9.25379L13.6694 9.19933C13.5154 9.74357 13.2999 10.2541 13.0229 10.731L13.1959 10.8315ZM13.8618 9.25379C14.0207 8.69247 14.1 8.10776 14.1 7.5H13.9C13.9 8.09016 13.823 8.65649 13.6694 9.19933L13.8618 9.25379ZM14.1 7.5C14.1 6.89736 14.0207 6.31527 13.8618 5.75402L13.6694 5.80848C13.8231 6.3514 13.9 6.91514 13.9 7.5H14.1ZM13.8619 5.75425C13.7034 5.18903 13.4814 4.66282 13.1956 4.17594L13.0231 4.27718C13.2999 4.74864 13.5153 5.25888 13.6693 5.80825L13.8619 5.75425ZM13.1959 4.17635C12.9103 3.68449 12.5664 3.2375 12.1645 2.83554L12.023 2.97696C12.4127 3.36667 12.746 3.79988 13.0229 4.27678L13.1959 4.17635ZM12.1645 2.83554C11.7625 2.43358 11.3155 2.08974 10.8237 1.80415L10.7232 1.9771C11.2001 2.25401 11.6333 2.58725 12.023 2.97696L12.1645 2.83554ZM10.8241 1.80438C10.3372 1.51861 9.81097 1.29656 9.24575 1.13809L9.19175 1.33066C9.74112 1.48469 10.2514 1.70014 10.7228 1.97687L10.8241 1.80438ZM9.24598 1.13815C8.68473 0.97931 8.10264 0.9 7.5 0.9V1.1C8.08486 1.1 8.6486 1.17694 9.19152 1.3306L9.24598 1.13815ZM7 6.1H8V5.9H7V6.1ZM7.9 6V11H8.1V6H7.9ZM8 10.9H7V11.1H8V10.9ZM7.1 11V6H6.9V11H7.1ZM7 4.1H8V3.9H7V4.1ZM7.9 4V5H8.1V4H7.9ZM8 4.9H7V5.1H8V4.9ZM7.1 5V4H6.9V5H7.1Z" fill="black"/>
</svg>
