<svg width="16" height="15" viewBox="0 0 16 15" fill="none" xmlns="http://www.w3.org/2000/svg">
<path d="M16 10H13V12H5L2 15V12H0V3H2V0H16V10ZM12 4H1V11H3V12.5859C3.26562 12.3203 3.52604 12.0547 3.78125 11.7891C4.04167 11.5234 4.3099 11.2604 4.58594 11H12V4ZM15 1H3V3H13V9H15V1Z" fill="black"/>
<path d="M16 10V10.1H16.1V10H16ZM13 10V9.9H12.9V10H13ZM13 12V12.1H13.1V12H13ZM5 12V11.9H4.95858L4.92929 11.9293L5 12ZM2 15H1.9V15.2414L2.07071 15.0707L2 15ZM2 12H2.1V11.9H2V12ZM0 12H-0.1V12.1H0V12ZM0 3V2.9H-0.1V3H0ZM2 3V3.1H2.1V3H2ZM2 0V-0.1H1.9V0H2ZM16 0H16.1V-0.1H16V0ZM12 4H12.1V3.9H12V4ZM1 4V3.9H0.9V4H1ZM1 11H0.9V11.1H1V11ZM3 11H3.1V10.9H3V11ZM3 12.5859H2.9V12.8274L3.07071 12.6566L3 12.5859ZM3.78125 11.7891L3.70984 11.7191L3.70914 11.7198L3.78125 11.7891ZM4.58594 11V10.9H4.54621L4.51732 10.9273L4.58594 11ZM12 11V11.1H12.1V11H12ZM15 1H15.1V0.9H15V1ZM3 1V0.9H2.9V1H3ZM3 3H2.9V3.1H3V3ZM13 3H13.1V2.9H13V3ZM13 9H12.9V9.1H13V9ZM15 9V9.1H15.1V9H15ZM16 9.9H13V10.1H16V9.9ZM12.9 10V12H13.1V10H12.9ZM13 11.9H5V12.1H13V11.9ZM4.92929 11.9293L1.92929 14.9293L2.07071 15.0707L5.07071 12.0707L4.92929 11.9293ZM2.1 15V12H1.9V15H2.1ZM2 11.9H0V12.1H2V11.9ZM0.1 12V3H-0.1V12H0.1ZM0 3.1H2V2.9H0V3.1ZM2.1 3V0H1.9V3H2.1ZM2 0.1H16V-0.1H2V0.1ZM15.9 0V10H16.1V0H15.9ZM12 3.9H1V4.1H12V3.9ZM0.9 4V11H1.1V4H0.9ZM1 11.1H3V10.9H1V11.1ZM2.9 11V12.5859H3.1V11H2.9ZM3.07071 12.6566C3.3368 12.3906 3.59768 12.1245 3.85336 11.8583L3.70914 11.7198C3.4544 11.9849 3.19445 12.2501 2.92929 12.5152L3.07071 12.6566ZM3.85266 11.8591C4.11215 11.5944 4.37944 11.3323 4.65456 11.0727L4.51732 10.9273C4.24035 11.1886 3.97119 11.4525 3.70984 11.7191L3.85266 11.8591ZM4.58594 11.1H12V10.9H4.58594V11.1ZM12.1 11V4H11.9V11H12.1ZM15 0.9H3V1.1H15V0.9ZM2.9 1V3H3.1V1H2.9ZM3 3.1H13V2.9H3V3.1ZM12.9 3V9H13.1V3H12.9ZM13 9.1H15V8.9H13V9.1ZM15.1 9V1H14.9V9H15.1Z" fill="black"/>
</svg>
